<?xml version="1.0" encoding="UTF-8"?>
<!DOCTYPE svg PUBLIC "-//W3C//DTD SVG 1.1//EN" "http://www.w3.org/Graphics/SVG/1.1/DTD/svg11.dtd">
<svg xmlns="http://www.w3.org/2000/svg" version="1.1" width="512px" height="512px" style="shape-rendering:geometricPrecision; text-rendering:geometricPrecision; image-rendering:optimizeQuality; fill-rule:evenodd; clip-rule:evenodd" xmlns:xlink="http://www.w3.org/1999/xlink">
<g><path style="opacity:0.932" fill="#000000" d="M 106.5,8.5 C 205.834,8.33334 305.167,8.5 404.5,9C 405.701,9.90252 406.535,11.0692 407,12.5C 407.167,86.1689 407.667,159.836 408.5,233.5C 412.839,229.657 417.839,228.157 423.5,229C 424.667,230.167 425.833,231.333 427,232.5C 449,270.5 471,308.5 493,346.5C 496.404,350.503 497.071,354.836 495,359.5C 476.428,371.065 457.594,382.232 438.5,393C 432.049,395.178 427.882,393.011 426,386.5C 419.104,392.363 411.937,397.863 404.5,403C 399.5,410.667 393.167,417 385.5,422C 379.869,423.729 374.202,423.895 368.5,422.5C 362.869,435.301 353.369,443.634 340,447.5C 337.108,460.059 329.608,468.559 317.5,473C 312.837,474.467 308.171,474.967 303.5,474.5C 291.476,498.781 274.309,503.114 252,487.5C 247.801,492.034 243.301,496.201 238.5,500C 224.322,505.885 214.322,501.718 208.5,487.5C 202.127,487.309 196.127,485.809 190.5,483C 186.964,478.763 183.798,474.263 181,469.5C 172.532,472.891 164.866,471.558 158,465.5C 155.042,461.084 152.208,456.584 149.5,452C 140.748,454.009 132.914,452.176 126,446.5C 120.684,439.205 117.017,431.205 115,422.5C 109.167,418.667 103.333,414.833 97.5,411C 92.2538,406.425 87.7538,401.258 84,395.5C 81.0453,399.277 77.212,400.443 72.5,399C 54.5,388.667 36.5,378.333 18.5,368C 13.8341,363.994 13.3341,359.494 17,354.5C 39.3333,315.833 61.6667,277.167 84,238.5C 85.6333,235.852 87.9666,234.519 91,234.5C 95.1142,235.429 98.9475,237.095 102.5,239.5C 103.333,163.836 103.833,88.1689 104,12.5C 104.662,11.0161 105.496,9.68275 106.5,8.5 Z M 118.5,22.5 C 178.5,22.5 238.5,22.5 298.5,22.5C 298.333,49.5021 298.5,76.5021 299,103.5C 300.018,106.683 302.185,108.016 305.5,107.5C 307.926,107.596 310.093,106.93 312,105.5C 318.615,95.8838 325.615,86.5505 333,77.5C 340.136,87.6031 347.636,97.4365 355.5,107C 359.244,107.929 362.744,107.429 366,105.5C 367.483,77.9219 367.983,50.2552 367.5,22.5C 375.833,22.5 384.167,22.5 392.5,22.5C 392.833,96.1697 392.5,169.836 391.5,243.5C 380.503,249.33 369.836,255.663 359.5,262.5C 358.047,269.127 359.713,274.961 364.5,280C 347.184,276.004 329.851,271.671 312.5,267C 298.282,263.237 284.282,263.904 270.5,269C 262.545,272.644 254.879,276.811 247.5,281.5C 240.5,277.667 233.5,273.833 226.5,270C 213.594,264.526 200.26,263.193 186.5,266C 175.226,269.152 163.892,271.985 152.5,274.5C 153.178,270.727 151.844,267.894 148.5,266C 138.833,260.5 129.167,255 119.5,249.5C 118.5,173.836 118.167,98.1696 118.5,22.5 Z M 313.5,22.5 C 326.5,22.5 339.5,22.5 352.5,22.5C 352.667,40.8364 352.5,59.1697 352,77.5C 347.667,71.5 343.333,65.5 339,59.5C 334.488,55.8622 330.155,56.1956 326,60.5C 322,65.8333 318,71.1667 314,76.5C 313.5,58.5031 313.333,40.5031 313.5,22.5 Z M 158.5,57.5 C 170.167,57.5 181.833,57.5 193.5,57.5C 193.5,69.5 193.5,81.5 193.5,93.5C 181.833,93.5 170.167,93.5 158.5,93.5C 158.5,81.5 158.5,69.5 158.5,57.5 Z M 415.5,246.5 C 416.496,246.414 417.329,246.748 418,247.5C 438.04,282.415 458.207,317.248 478.5,352C 465.229,360.219 451.729,368.052 438,375.5C 417.008,340.857 396.508,305.857 376.5,270.5C 389.361,262.238 402.361,254.238 415.5,246.5 Z M 93.5,252.5 C 107.64,259.735 121.307,267.735 134.5,276.5C 114.492,311.857 93.9925,346.857 73,381.5C 59.2705,374.052 45.7705,366.219 32.5,358C 52.9714,322.888 73.3047,287.721 93.5,252.5 Z M 194.5,279.5 C 208.046,278.803 220.379,282.303 231.5,290C 213.998,300.586 196.331,310.919 178.5,321C 174.247,324.42 173.413,328.587 176,333.5C 180.238,342.811 186.072,350.978 193.5,358C 200.371,361.885 207.705,363.218 215.5,362C 240.5,355 265.5,348 290.5,341C 299.838,339.284 308.504,340.95 316.5,346C 340.003,359.919 363.67,373.586 387.5,387C 391.417,389.834 392.251,393.334 390,397.5C 386.5,401 383,404.5 379.5,408C 377.167,408.667 374.833,408.667 372.5,408C 347.895,393.447 323.061,379.28 298,365.5C 291.085,366.761 288.751,370.761 291,377.5C 310.088,389.63 329.588,401.13 349.5,412C 351.448,413.439 352.781,415.272 353.5,417.5C 351.069,424.932 346.069,429.598 338.5,431.5C 321.708,422.269 305.041,412.769 288.5,403C 281.536,399.549 277.203,401.549 275.5,409C 275.703,411.406 276.703,413.406 278.5,415C 292.5,423 306.5,431 320.5,439C 325.98,441.8 326.813,445.633 323,450.5C 319.769,454.859 315.603,457.859 310.5,459.5C 300.167,453.667 289.833,447.833 279.5,442C 270.489,441.011 267.323,444.844 270,453.5C 277.398,457.606 283.898,462.773 289.5,469C 286.454,475.389 281.621,479.555 275,481.5C 270.05,479.778 265.216,477.612 260.5,475C 259.583,471.248 258.083,467.748 256,464.5C 251.533,459.032 246.7,453.865 241.5,449C 238.397,447.254 235.231,446.754 232,447.5C 226.866,441.365 221.366,435.531 215.5,430C 211.584,428.898 207.584,428.231 203.5,428C 198.5,422.333 193.5,416.667 188.5,411C 184.381,409.149 180.048,407.982 175.5,407.5C 171.333,402.5 167.167,397.5 163,392.5C 156.705,385.086 149.205,383.586 140.5,388C 134.167,394.333 127.833,400.667 121.5,407C 120.092,407.315 118.759,406.982 117.5,406C 107.646,398.979 99.3123,390.479 92.5,380.5C 108.869,350.923 125.869,321.757 143.5,293C 160.596,288.348 177.596,283.848 194.5,279.5 Z M 287.5,279.5 C 293.555,279.338 299.555,279.838 305.5,281C 328.946,286.861 352.28,293.028 375.5,299.5C 390.174,323.863 404.007,348.529 417,373.5C 412.978,377.023 408.811,380.357 404.5,383.5C 401.25,377.75 396.584,373.584 390.5,371C 368.5,358.333 346.5,345.667 324.5,333C 313.374,326.219 301.374,323.886 288.5,326C 263.456,332.844 238.456,339.844 213.5,347C 208.684,348.027 204.35,347.027 200.5,344C 196.707,339.75 194.374,335.084 193.5,330C 217.33,316.586 240.997,302.919 264.5,289C 271.824,284.661 279.49,281.494 287.5,279.5 Z M 148.5,400.5 C 153.821,405.825 158.821,411.491 163.5,417.5C 157.348,424.152 151.015,430.652 144.5,437C 142.5,437.667 140.5,437.667 138.5,437C 133.871,431.926 131.371,426.093 131,419.5C 136.671,412.996 142.505,406.663 148.5,400.5 Z M 178.5,424.5 C 180.716,425.203 182.549,426.536 184,428.5C 186.833,432 189.667,435.5 192.5,439C 186.585,445.587 180.085,451.421 173,456.5C 171.527,456.097 170.194,455.43 169,454.5C 166.579,450.66 164.412,446.66 162.5,442.5C 167.484,436.183 172.818,430.183 178.5,424.5 Z M 207.5,444.5 C 211.803,447.808 215.47,451.808 218.5,456.5C 213.768,462.235 208.435,467.235 202.5,471.5C 197.129,468.427 194.629,463.761 195,457.5C 199.37,453.298 203.537,448.964 207.5,444.5 Z M 233.5,463.5 C 237.332,466.499 240.665,469.999 243.5,474C 239.167,478.333 234.833,482.667 230.5,487C 229.167,487.667 227.833,487.667 226.5,487C 224.375,483.918 222.375,480.751 220.5,477.5C 224.855,472.813 229.188,468.146 233.5,463.5 Z"/></g>
<g><path style="opacity:0.948" fill="#000000" d="M 148.5,42.5 C 166.836,42.3334 185.17,42.5001 203.5,43C 204.766,43.3095 205.933,43.8095 207,44.5C 208.642,64.4104 208.975,84.4104 208,104.5C 207.167,105.333 206.333,106.167 205.5,107C 186.167,107.667 166.833,107.667 147.5,107C 146.584,106.626 145.75,106.126 145,105.5C 143.359,86.2566 143.025,66.9233 144,47.5C 145.025,45.313 146.525,43.6464 148.5,42.5 Z M 158.5,57.5 C 158.5,69.5 158.5,81.5 158.5,93.5C 170.167,93.5 181.833,93.5 193.5,93.5C 193.5,81.5 193.5,69.5 193.5,57.5C 181.833,57.5 170.167,57.5 158.5,57.5 Z"/></g>
<g><path style="opacity:0.928" fill="#000000" d="M 152.5,150.5 C 222.834,150.333 293.167,150.5 363.5,151C 369.062,156.163 368.729,160.829 362.5,165C 292.833,165.667 223.167,165.667 153.5,165C 147.205,160.663 146.872,155.829 152.5,150.5 Z"/></g>
<g><path style="opacity:0.928" fill="#000000" d="M 154.5,189.5 C 223.501,189.333 292.501,189.5 361.5,190C 365.277,190.779 367.277,193.112 367.5,197C 367.189,199.96 365.855,202.294 363.5,204C 293.167,204.667 222.833,204.667 152.5,204C 147.003,198.185 147.67,193.351 154.5,189.5 Z"/></g>
<g><path style="opacity:0.928" fill="#000000" d="M 152.5,229.5 C 222.834,229.333 293.167,229.5 363.5,230C 369.282,235.736 368.616,240.402 361.5,244C 292.5,244.667 223.5,244.667 154.5,244C 150.723,243.221 148.723,240.888 148.5,237C 148.927,233.977 150.261,231.477 152.5,229.5 Z"/></g>
</svg>
