<?xml version="1.0" encoding="UTF-8"?>
<!DOCTYPE svg PUBLIC "-//W3C//DTD SVG 1.1//EN" "http://www.w3.org/Graphics/SVG/1.1/DTD/svg11.dtd">
<svg xmlns="http://www.w3.org/2000/svg" version="1.1" width="512px" height="512px" style="shape-rendering:geometricPrecision; text-rendering:geometricPrecision; image-rendering:optimizeQuality; fill-rule:evenodd; clip-rule:evenodd" xmlns:xlink="http://www.w3.org/1999/xlink">
<g><path style="opacity:0.917" fill="#000000" d="M 244.5,26.5 C 292.514,24.4121 326.347,45.0787 346,88.5C 360.359,135.946 347.859,174.446 308.5,204C 271.75,225.199 235.417,224.532 199.5,202C 164.245,174.198 152.078,138.364 163,94.5C 177.003,55.9931 204.169,33.3264 244.5,26.5 Z M 253.5,40.5 C 289.609,42.1432 315.442,59.1432 331,91.5C 344.12,128.806 335.953,160.639 306.5,187C 279.797,206.479 251.131,209.813 220.5,197C 182.204,175.232 167.704,142.732 177,99.5C 190.034,63.5765 215.534,43.9099 253.5,40.5 Z M 254.5,89.5 C 255.376,89.3691 256.043,89.7025 256.5,90.5C 260.122,97.5797 264.122,104.413 268.5,111C 276.782,112.923 285.115,114.59 293.5,116C 288,121.5 282.5,127 277,132.5C 276.399,134.137 275.899,135.803 275.5,137.5C 277.17,144.835 277.837,152.168 277.5,159.5C 270.405,155.619 263.071,152.285 255.5,149.5C 247.929,152.285 240.595,155.619 233.5,159.5C 233.167,158.5 232.833,157.5 232.5,156.5C 233.752,149.49 234.585,142.49 235,135.5C 229.908,128.404 224.074,121.904 217.5,116C 225.864,114.44 234.197,112.773 242.5,111C 247.158,104.182 251.158,97.0158 254.5,89.5 Z"/></g>
<g><path style="opacity:0.921" fill="#000000" d="M 252.5,65.5 C 256.08,64.9228 259.08,65.9228 261.5,68.5C 266.706,78.4132 272.04,88.2465 277.5,98C 288.48,100.108 299.48,102.108 310.5,104C 315.434,106.665 316.601,110.498 314,115.5C 307.031,123.47 299.698,131.136 292,138.5C 292.339,149.887 293.506,161.22 295.5,172.5C 294.222,179.64 290.222,181.806 283.5,179C 274.045,174.772 264.711,170.272 255.5,165.5C 244.727,170.637 233.893,175.637 223,180.5C 219.601,180.265 217.268,178.598 216,175.5C 217.246,163.193 218.246,150.86 219,138.5C 211.302,131.136 203.969,123.47 197,115.5C 194.399,110.498 195.566,106.665 200.5,104C 211.52,102.108 222.52,100.108 233.5,98C 239.229,86.6931 245.563,75.8598 252.5,65.5 Z M 254.5,89.5 C 251.158,97.0158 247.158,104.182 242.5,111C 234.197,112.773 225.864,114.44 217.5,116C 224.074,121.904 229.908,128.404 235,135.5C 234.585,142.49 233.752,149.49 232.5,156.5C 232.833,157.5 233.167,158.5 233.5,159.5C 240.595,155.619 247.929,152.285 255.5,149.5C 263.071,152.285 270.405,155.619 277.5,159.5C 277.837,152.168 277.17,144.835 275.5,137.5C 275.899,135.803 276.399,134.137 277,132.5C 282.5,127 288,121.5 293.5,116C 285.115,114.59 276.782,112.923 268.5,111C 264.122,104.413 260.122,97.5797 256.5,90.5C 256.043,89.7025 255.376,89.3691 254.5,89.5 Z"/></g>
<g><path style="opacity:0.936" fill="#000000" d="M -0.5,481.5 C -0.5,456.5 -0.5,431.5 -0.5,406.5C 10.3275,370.054 34.9942,351.721 73.5,351.5C 75.6265,348.081 77.6265,344.581 79.5,341C 66.4592,332.273 58.6259,320.106 56,304.5C 55.6667,296.167 55.3333,287.833 55,279.5C 48.324,254.16 54.4906,232.66 73.5,215C 91.7614,202.782 111.428,200.116 132.5,207C 157.684,217.871 169.184,237.038 167,264.5C 166.294,269.99 164.961,275.323 163,280.5C 163.026,291.28 162.026,301.947 160,312.5C 156.416,323.909 149.916,333.242 140.5,340.5C 142.5,344.167 144.5,347.833 146.5,351.5C 178.446,350.709 201.612,364.375 216,392.5C 217.535,396.773 218.869,401.106 220,405.5C 221.585,430.138 221.919,454.804 221,479.5C 220.215,481.286 219.049,482.786 217.5,484C 146.167,484.667 74.8333,484.667 3.5,484C 2.01608,483.338 0.682751,482.504 -0.5,481.5 Z M 102.5,217.5 C 123.856,215.757 139.689,224.09 150,242.5C 150.991,244.447 151.325,246.447 151,248.5C 137.883,235.264 122.05,230.43 103.5,234C 90.3448,236.162 78.8448,241.662 69,250.5C 73.3472,232.653 84.5139,221.653 102.5,217.5 Z M 108.5,247.5 C 136.409,247.244 149.409,261.077 147.5,289C 148.693,316.466 135.693,331.966 108.5,335.5C 90.3301,333.814 78.1635,324.48 72,307.5C 62.5467,274.042 74.7134,254.042 108.5,247.5 Z M 92.5,347.5 C 103.481,350.165 114.481,350.165 125.5,347.5C 126.442,347.608 127.275,347.941 128,348.5C 129.413,351.661 131.08,354.661 133,357.5C 133.52,359.289 133.187,360.956 132,362.5C 124.424,371.987 117.091,381.654 110,391.5C 102.333,381.167 94.6667,370.833 87,360.5C 86.3333,359.5 86.3333,358.5 87,357.5C 89.1118,354.273 90.9451,350.94 92.5,347.5 Z M 57.5,367.5 C 62.8437,367.334 68.1771,367.501 73.5,368C 83.7882,381.41 93.9549,394.91 104,408.5C 108.665,411.456 112.998,411.122 117,407.5C 126.833,394.333 136.667,381.167 146.5,368C 176.053,365.686 195.553,378.519 205,406.5C 206.43,427.794 206.93,449.127 206.5,470.5C 197.833,470.5 189.167,470.5 180.5,470.5C 180.667,453.497 180.5,436.497 180,419.5C 175.667,415.5 171.333,415.5 167,419.5C 166.5,436.497 166.333,453.497 166.5,470.5C 128.833,470.5 91.1667,470.5 53.5,470.5C 53.6666,453.497 53.4999,436.497 53,419.5C 48.6667,415.5 44.3333,415.5 40,419.5C 39.5001,436.497 39.3334,453.497 39.5,470.5C 30.8333,470.5 22.1667,470.5 13.5,470.5C 13.3334,451.164 13.5,431.83 14,412.5C 18.9002,388.101 33.4002,373.101 57.5,367.5 Z"/></g>
<g><path style="opacity:0.937" fill="#000000" d="M 511.5,407.5 C 511.5,432.167 511.5,456.833 511.5,481.5C 510.317,482.504 508.984,483.338 507.5,484C 436.167,484.667 364.833,484.667 293.5,484C 291.951,482.786 290.785,481.286 290,479.5C 289.081,454.804 289.415,430.138 291,405.5C 297.557,379.943 313.39,363.11 338.5,355C 347.123,353.505 355.79,352.339 364.5,351.5C 365.747,348.671 367.247,346.005 369,343.5C 369.667,342.5 369.667,341.5 369,340.5C 358.556,332.956 351.556,322.956 348,310.5C 347.152,296.792 345.819,283.125 344,269.5C 341.06,234.828 356.227,212.995 389.5,204C 416.355,200.044 437.188,209.211 452,231.5C 459.744,247.199 460.411,263.199 454,279.5C 456.026,299.071 451.359,316.738 440,332.5C 436.833,335 433.667,337.5 430.5,340C 432.959,343.75 435.292,347.583 437.5,351.5C 466.446,350.719 488.613,362.386 504,386.5C 507.429,393.295 509.929,400.295 511.5,407.5 Z M 393.5,217.5 C 415.256,215.623 431.089,224.29 441,243.5C 441.788,245.165 442.122,246.831 442,248.5C 428.552,235.13 412.385,230.297 393.5,234C 380.565,236.079 369.399,241.579 360,250.5C 360.299,245.931 361.632,241.598 364,237.5C 371.135,226.694 380.968,220.028 393.5,217.5 Z M 398.5,247.5 C 426.902,246.736 440.236,260.57 438.5,289C 439.4,316.435 426.233,331.935 399,335.5C 371.557,331.177 358.723,315.01 360.5,287C 359.479,273.376 364.812,263.043 376.5,256C 383.461,251.852 390.795,249.019 398.5,247.5 Z M 383.5,347.5 C 394.481,350.165 405.481,350.165 416.5,347.5C 418.088,348.01 419.255,349.01 420,350.5C 421.08,352.996 422.414,355.33 424,357.5C 424.52,359.289 424.187,360.956 423,362.5C 415.424,371.987 408.091,381.654 401,391.5C 393.333,381.167 385.667,370.833 378,360.5C 377.333,359.5 377.333,358.5 378,357.5C 380.099,354.3 381.933,350.967 383.5,347.5 Z M 348.5,367.5 C 353.844,367.334 359.177,367.501 364.5,368C 375.167,382 385.833,396 396.5,410C 400.244,410.929 403.744,410.429 407,408.5C 417.045,394.91 427.212,381.41 437.5,368C 467.54,365.726 487.04,378.893 496,407.5C 497.429,428.46 497.929,449.46 497.5,470.5C 488.833,470.5 480.167,470.5 471.5,470.5C 471.667,453.83 471.5,437.163 471,420.5C 469.982,417.317 467.815,415.984 464.5,416.5C 461.675,416.119 459.509,417.119 458,419.5C 457.5,436.497 457.333,453.497 457.5,470.5C 419.833,470.5 382.167,470.5 344.5,470.5C 344.667,453.497 344.5,436.497 344,419.5C 339.667,415.5 335.333,415.5 331,419.5C 330.5,436.497 330.333,453.497 330.5,470.5C 321.833,470.5 313.167,470.5 304.5,470.5C 304.333,451.164 304.5,431.83 305,412.5C 309.894,388.107 324.394,373.107 348.5,367.5 Z"/></g>
</svg>
