<?xml version="1.0" encoding="UTF-8"?>
<!DOCTYPE svg PUBLIC "-//W3C//DTD SVG 1.1//EN" "http://www.w3.org/Graphics/SVG/1.1/DTD/svg11.dtd">
<svg xmlns="http://www.w3.org/2000/svg" version="1.1" width="512px" height="512px" style="shape-rendering:geometricPrecision; text-rendering:geometricPrecision; image-rendering:optimizeQuality; fill-rule:evenodd; clip-rule:evenodd" xmlns:xlink="http://www.w3.org/1999/xlink">
<g><path style="opacity:0.94" fill="#000000" d="M 216.5,7.5 C 240.97,4.8136 258.47,14.4803 269,36.5C 270.352,39.7201 271.186,43.0534 271.5,46.5C 277.925,46.1304 284.258,46.6304 290.5,48C 294.704,50.2381 297.037,53.7381 297.5,58.5C 332.835,58.3333 368.168,58.5 403.5,59C 410.19,61.0263 414.023,65.5263 415,72.5C 415.333,147.833 415.667,223.167 416,298.5C 421.061,296.051 426.227,295.884 431.5,298C 439.373,304.205 446.206,311.372 452,319.5C 452.667,323.167 452.667,326.833 452,330.5C 449.147,337.041 445.647,343.207 441.5,349C 443.167,352.667 444.833,356.333 446.5,360C 454.519,361.254 462.186,363.587 469.5,367C 472.467,369.1 474.3,371.934 475,375.5C 475.923,385.574 475.59,395.574 474,405.5C 472.093,409.039 469.26,411.539 465.5,413C 459.239,414.919 452.905,416.586 446.5,418C 444.833,421.667 443.167,425.333 441.5,429C 445.647,434.793 449.147,440.959 452,447.5C 453.068,452.768 452.401,457.768 450,462.5C 444.833,467.667 439.667,472.833 434.5,478C 428.079,482.199 421.412,482.532 414.5,479C 409.897,475.782 405.064,472.948 400,470.5C 395.749,471.571 392.082,473.571 389,476.5C 388.069,485.077 385.236,492.91 380.5,500C 374.438,503.878 367.771,505.378 360.5,504.5C 353.809,505.079 347.476,503.913 341.5,501C 339.3,498.766 337.467,496.266 336,493.5C 334.479,487.048 332.645,480.715 330.5,474.5C 327.241,472.969 323.907,471.636 320.5,470.5C 314.984,473.829 309.318,476.995 303.5,480C 298.016,482.148 292.683,481.815 287.5,479C 284.833,476.333 282.167,473.667 279.5,471C 202.167,470.667 124.833,470.333 47.5,470C 42.8151,468.65 39.3151,465.817 37,461.5C 35.3386,331.222 35.0053,200.889 36,70.5C 37.8333,64.6667 41.6667,60.8333 47.5,59C 82.4984,58.5 117.498,58.3333 152.5,58.5C 153.4,54.09 155.734,50.59 159.5,48C 165.742,46.6304 172.075,46.1304 178.5,46.5C 183.122,25.5458 195.789,12.5458 216.5,7.5 Z M 218.5,24.5 C 241.715,23.3538 254.215,34.3538 256,57.5C 256.785,59.286 257.951,60.786 259.5,62C 266.719,63.4286 274.053,63.9286 281.5,63.5C 281.5,80.5 281.5,97.5 281.5,114.5C 243.833,114.5 206.167,114.5 168.5,114.5C 168.5,97.5 168.5,80.5 168.5,63.5C 175.947,63.9286 183.281,63.4286 190.5,62C 192.049,60.786 193.215,59.286 194,57.5C 194.842,40.8527 203.009,29.8527 218.5,24.5 Z M 222.5,50.5 C 229.162,49.9973 231.662,52.9973 230,59.5C 226.329,63.5441 222.996,63.2108 220,58.5C 219.023,55.1827 219.856,52.516 222.5,50.5 Z M 52.5,75.5 C 85.5,75.5 118.5,75.5 151.5,75.5C 151.5,82.1667 151.5,88.8333 151.5,95.5C 130.164,95.3334 108.831,95.5 87.5,96C 84.6193,97.2506 82.786,99.4173 82,102.5C 81.3333,210.167 81.3333,317.833 82,425.5C 82.7386,428.573 84.5719,430.74 87.5,432C 150.503,432.167 213.503,432.667 276.5,433.5C 271.398,439.244 268.732,445.91 268.5,453.5C 196.5,453.5 124.5,453.5 52.5,453.5C 52.5,327.5 52.5,201.5 52.5,75.5 Z M 298.5,75.5 C 331.833,75.5 365.167,75.5 398.5,75.5C 398.833,152.503 398.5,229.503 397.5,306.5C 394.711,305.352 392.044,304.019 389.5,302.5C 388.072,294.441 385.572,286.775 382,279.5C 378.294,275.731 373.794,273.731 368.5,273.5C 368.667,215.832 368.5,158.166 368,100.5C 366.773,98.2739 364.939,96.7739 362.5,96C 341.169,95.5 319.836,95.3334 298.5,95.5C 298.5,88.8333 298.5,82.1667 298.5,75.5 Z M 98.5,112.5 C 116.167,112.5 133.833,112.5 151.5,112.5C 150.808,120.956 154.141,127.122 161.5,131C 203.833,131.667 246.167,131.667 288.5,131C 295.869,127.099 299.203,120.933 298.5,112.5C 316.167,112.5 333.833,112.5 351.5,112.5C 351.5,166.167 351.5,219.833 351.5,273.5C 345.84,273.58 341.34,275.913 338,280.5C 334.984,287.396 332.817,294.562 331.5,302C 328.281,304.197 324.781,306.031 321,307.5C 315.271,304.719 309.771,301.553 304.5,298C 298.669,295.771 293.002,296.105 287.5,299C 282.5,304 277.5,309 272.5,314C 250.167,314.333 227.833,314.667 205.5,315C 199.296,319.52 198.963,324.52 204.5,330C 226.124,331.123 247.791,331.956 269.5,332.5C 271.329,336.828 273.662,340.828 276.5,344.5C 252.84,345.333 229.174,345.833 205.5,346C 200.701,349.071 199.535,353.238 202,358.5C 203.319,360.487 205.152,361.654 207.5,362C 225.5,362.333 243.5,362.667 261.5,363C 253.734,364.05 248.401,368.217 245.5,375.5C 232.179,376.333 218.846,376.833 205.5,377C 200.701,380.071 199.535,384.238 202,389.5C 203.319,391.487 205.152,392.654 207.5,393C 220.162,393.5 232.829,393.667 245.5,393.5C 244.108,405.615 249.441,412.781 261.5,415C 207.168,415.5 152.834,415.667 98.5,415.5C 98.5,314.5 98.5,213.5 98.5,112.5 Z M 205.5,154.5 C 218.833,154.5 232.167,154.5 245.5,154.5C 245.5,157.167 245.5,159.833 245.5,162.5C 232.167,162.5 218.833,162.5 205.5,162.5C 205.5,159.833 205.5,157.167 205.5,154.5 Z M 159.5,179.5 C 203.5,179.5 247.5,179.5 291.5,179.5C 291.5,190.833 291.5,202.167 291.5,213.5C 277.811,215.705 264.144,218.038 250.5,220.5C 251.041,215.081 248.707,211.581 243.5,210C 231.5,209.333 219.5,209.333 207.5,210C 202.758,211.408 200.258,214.574 200,219.5C 199.439,220.022 198.772,220.355 198,220.5C 185.241,217.715 172.407,215.381 159.5,213.5C 159.5,202.167 159.5,190.833 159.5,179.5 Z M 216.5,226.5 C 222.167,226.5 227.833,226.5 233.5,226.5C 233.5,229.5 233.5,232.5 233.5,235.5C 227.833,235.5 222.167,235.5 216.5,235.5C 216.5,232.5 216.5,229.5 216.5,226.5 Z M 165.5,231.5 C 176.757,233.885 188.091,235.885 199.5,237.5C 199.267,242.757 200.934,247.257 204.5,251C 211.424,252.11 218.424,252.61 225.5,252.5C 231.5,252.333 237.5,252.167 243.5,252C 249.892,249.278 252.225,244.445 250.5,237.5C 261.948,236.144 273.281,234.144 284.5,231.5C 285.499,245.818 285.833,260.151 285.5,274.5C 245.5,274.5 205.5,274.5 165.5,274.5C 165.5,260.167 165.5,245.833 165.5,231.5 Z M 352.5,290.5 C 357.844,290.334 363.177,290.501 368.5,291C 370.754,299.183 373.088,307.349 375.5,315.5C 383.842,319.45 392.342,323.117 401,326.5C 408.943,322.694 416.61,318.361 424,313.5C 428.016,317.348 431.849,321.348 435.5,325.5C 432.198,331.299 428.698,336.966 425,342.5C 424.015,344.366 423.515,346.366 423.5,348.5C 425.981,355.472 428.481,362.472 431,369.5C 432.122,371.624 433.622,373.457 435.5,375C 442.919,376.521 450.252,378.355 457.5,380.5C 458.833,386.167 458.833,391.833 457.5,397.5C 449.142,399.297 440.976,401.63 433,404.5C 430.39,411.664 427.39,418.664 424,425.5C 423.333,428.167 423.333,430.833 424,433.5C 427,438.167 430,442.833 433,447.5C 434.301,449.402 434.968,451.402 435,453.5C 431.333,457.167 427.667,460.833 424,464.5C 416.808,459.304 409.141,454.97 401,451.5C 393.625,454.516 386.125,457.349 378.5,460C 376.274,461.227 374.774,463.061 374,465.5C 372.333,472.5 370.667,479.5 369,486.5C 363.333,487.833 357.667,487.833 352,486.5C 350.079,479.564 348.413,472.564 347,465.5C 345.833,463 344,461.167 341.5,460C 334.161,457.555 326.994,454.721 320,451.5C 311.859,454.97 304.192,459.304 297,464.5C 293.333,460.833 289.667,457.167 286,453.5C 285.333,452.5 285.333,451.5 286,450.5C 290.064,444.764 293.73,438.764 297,432.5C 297.667,430.167 297.667,427.833 297,425.5C 293.506,419.512 290.839,413.179 289,406.5C 287.833,405.333 286.667,404.167 285.5,403C 278.156,401.164 270.823,399.331 263.5,397.5C 262.193,391.612 262.193,385.779 263.5,380C 270.541,378.49 277.541,376.823 284.5,375C 286.286,374.215 287.786,373.049 289,371.5C 290.561,365.477 292.894,359.81 296,354.5C 297.368,351.262 297.701,347.928 297,344.5C 293.333,338.833 289.667,333.167 286,327.5C 285.333,326.5 285.333,325.5 286,324.5C 289.667,320.833 293.333,317.167 297,313.5C 304.184,318.683 311.851,323.016 320,326.5C 327.664,322.918 335.497,319.752 343.5,317C 344.333,316.167 345.167,315.333 346,314.5C 348.109,306.444 350.275,298.444 352.5,290.5 Z M 358.5,360.5 C 378.452,362.612 388.285,373.612 388,393.5C 383.205,411.154 371.705,418.654 353.5,416C 337.925,410.684 331.092,399.851 333,383.5C 336.946,370.635 345.446,362.969 358.5,360.5 Z"/></g>
<g><path style="opacity:0.934" fill="#000000" d="M 218.5,33.5 C 239.313,32.1461 248.813,41.8128 247,62.5C 239.443,79.0001 227.61,83.1668 211.5,75C 202.167,66.4338 200,56.2672 205,44.5C 208.336,39.2685 212.836,35.6018 218.5,33.5 Z M 222.5,50.5 C 219.856,52.516 219.023,55.1827 220,58.5C 222.996,63.2108 226.329,63.5441 230,59.5C 231.662,52.9973 229.162,49.9973 222.5,50.5 Z"/></g>
<g><path style="opacity:0.943" fill="#000000" d="M 199.5,137.5 C 217.902,137.039 236.235,137.539 254.5,139C 257.333,140.5 259.5,142.667 261,145.5C 262.351,151.072 262.851,156.738 262.5,162.5C 275.171,162.333 287.838,162.5 300.5,163C 304.333,164.167 306.833,166.667 308,170.5C 308.667,187.5 308.667,204.5 308,221.5C 307.264,224.32 305.598,226.32 303,227.5C 302.667,245.167 302.333,262.833 302,280.5C 300.5,286 297,289.5 291.5,291C 247.167,291.667 202.833,291.667 158.5,291C 154,289.167 150.833,286 149,281.5C 148.833,263.491 148.333,245.491 147.5,227.5C 145.473,226.307 143.973,224.64 143,222.5C 142.333,204.833 142.333,187.167 143,169.5C 144.587,166.244 147.087,164.077 150.5,163C 163.162,162.5 175.829,162.333 188.5,162.5C 185.491,150.875 189.158,142.541 199.5,137.5 Z M 205.5,154.5 C 205.5,157.167 205.5,159.833 205.5,162.5C 218.833,162.5 232.167,162.5 245.5,162.5C 245.5,159.833 245.5,157.167 245.5,154.5C 232.167,154.5 218.833,154.5 205.5,154.5 Z M 159.5,179.5 C 159.5,190.833 159.5,202.167 159.5,213.5C 172.407,215.381 185.241,217.715 198,220.5C 198.772,220.355 199.439,220.022 200,219.5C 200.258,214.574 202.758,211.408 207.5,210C 219.5,209.333 231.5,209.333 243.5,210C 248.707,211.581 251.041,215.081 250.5,220.5C 264.144,218.038 277.811,215.705 291.5,213.5C 291.5,202.167 291.5,190.833 291.5,179.5C 247.5,179.5 203.5,179.5 159.5,179.5 Z M 216.5,226.5 C 216.5,229.5 216.5,232.5 216.5,235.5C 222.167,235.5 227.833,235.5 233.5,235.5C 233.5,232.5 233.5,229.5 233.5,226.5C 227.833,226.5 222.167,226.5 216.5,226.5 Z M 165.5,231.5 C 165.5,245.833 165.5,260.167 165.5,274.5C 205.5,274.5 245.5,274.5 285.5,274.5C 285.833,260.151 285.499,245.818 284.5,231.5C 273.281,234.144 261.948,236.144 250.5,237.5C 252.225,244.445 249.892,249.278 243.5,252C 237.5,252.167 231.5,252.333 225.5,252.5C 218.424,252.61 211.424,252.11 204.5,251C 200.934,247.257 199.267,242.757 199.5,237.5C 188.091,235.885 176.757,233.885 165.5,231.5 Z"/></g>
<g><path style="opacity:0.913" fill="#000000" d="M 185.5,301.5 C 192.432,302.598 195.265,306.598 194,313.5C 192.207,316.295 190.04,318.795 187.5,321C 180.54,326.292 173.873,331.958 167.5,338C 164.45,339.714 161.45,339.714 158.5,338C 153.729,334.862 149.229,331.362 145,327.5C 142.178,317.32 146.011,313.153 156.5,315C 158.609,316.141 160.442,317.641 162,319.5C 167.167,315 172.333,310.5 177.5,306C 179.87,303.758 182.536,302.258 185.5,301.5 Z"/></g>
<g><path style="opacity:0.912" fill="#000000" d="M 181.5,335.5 C 190.606,333.779 194.773,337.446 194,346.5C 185.82,355.346 176.986,363.513 167.5,371C 165.246,372.15 162.913,372.484 160.5,372C 154.77,368.938 149.603,365.104 145,360.5C 142.121,350.375 145.954,346.208 156.5,348C 158.641,349.308 160.641,350.808 162.5,352.5C 169.177,347.153 175.51,341.486 181.5,335.5 Z"/></g>
<g><path style="opacity:0.929" fill="#000000" d="M 358.5,343.5 C 384.186,344.418 399.686,357.418 405,382.5C 406.567,408.896 394.734,425.729 369.5,433C 341.118,436.073 323.285,423.906 316,396.5C 314.166,365.847 328.333,348.181 358.5,343.5 Z M 358.5,360.5 C 345.446,362.969 336.946,370.635 333,383.5C 331.092,399.851 337.925,410.684 353.5,416C 371.705,418.654 383.205,411.154 388,393.5C 388.285,373.612 378.452,362.612 358.5,360.5 Z"/></g>
<g><path style="opacity:0.911" fill="#000000" d="M 181.5,366.5 C 190.606,364.779 194.773,368.446 194,377.5C 185.82,386.346 176.986,394.513 167.5,402C 165.305,403.373 162.971,403.706 160.5,403C 154.77,399.938 149.603,396.104 145,391.5C 142.121,381.375 145.954,377.208 156.5,379C 158.641,380.308 160.641,381.808 162.5,383.5C 169.177,378.153 175.51,372.486 181.5,366.5 Z"/></g>
</svg>
