<?xml version="1.0" encoding="UTF-8"?>
<!DOCTYPE svg PUBLIC "-//W3C//DTD SVG 1.1//EN" "http://www.w3.org/Graphics/SVG/1.1/DTD/svg11.dtd">
<svg xmlns="http://www.w3.org/2000/svg" version="1.1" width="512px" height="512px" style="shape-rendering:geometricPrecision; text-rendering:geometricPrecision; image-rendering:optimizeQuality; fill-rule:evenodd; clip-rule:evenodd" xmlns:xlink="http://www.w3.org/1999/xlink">
<g><path style="opacity:0.94" fill="#000000" d="M 284.5,29.5 C 321.361,26.848 349.861,40.848 370,71.5C 385.411,99.3682 386.411,127.702 373,156.5C 363.964,169.241 357.631,183.241 354,198.5C 351.497,213.768 349.831,229.102 349,244.5C 346.718,249.116 343.384,252.783 339,255.5C 340.016,267.138 335.516,275.805 325.5,281.5C 326.52,290.936 323.52,298.769 316.5,305C 314.283,306.275 311.949,307.275 309.5,308C 299.833,308.667 290.167,308.667 280.5,308C 269.081,303.016 263.915,294.183 265,281.5C 255.008,275.854 250.508,267.188 251.5,255.5C 246.861,253.361 243.361,250.028 241,245.5C 239.735,234.221 238.735,222.887 238,211.5C 236.74,200.795 234.074,190.461 230,180.5C 224.333,169.833 218.667,159.167 213,148.5C 200.755,111.651 208.255,79.4843 235.5,52C 249.639,39.5951 265.973,32.0951 284.5,29.5 Z M 285.5,46.5 C 324.146,45.0126 349.98,62.3459 363,98.5C 366.752,113.041 366.086,127.374 361,141.5C 353.885,153.395 347.552,165.728 342,178.5C 337.899,190.171 335.399,202.171 334.5,214.5C 328.833,214.5 323.167,214.5 317.5,214.5C 317.5,191.167 317.5,167.833 317.5,144.5C 334.84,147.254 346.673,140.588 353,124.5C 355.143,102.649 345.31,91.4825 323.5,91C 313.161,92.336 305.994,97.836 302,107.5C 300.623,114.076 300.123,120.743 300.5,127.5C 296.833,127.5 293.167,127.5 289.5,127.5C 291.899,101.399 280.232,89.5661 254.5,92C 236.393,100.651 231.559,114.151 240,132.5C 248.33,142.807 259.163,146.807 272.5,144.5C 272.5,167.833 272.5,191.167 272.5,214.5C 266.833,214.5 261.167,214.5 255.5,214.5C 254.248,201.489 251.414,188.823 247,176.5C 241.857,165.548 236.191,154.881 230,144.5C 218.396,112.415 225.229,84.9155 250.5,62C 261.034,54.0618 272.701,48.8951 285.5,46.5 Z M 260.5,107.5 C 264.883,107.348 268.383,109.015 271,112.5C 272.388,117.372 272.888,122.372 272.5,127.5C 268.486,127.666 264.486,127.499 260.5,127C 253.285,123.687 251.452,118.521 255,111.5C 256.812,110.023 258.645,108.69 260.5,107.5 Z M 325.5,107.5 C 336.216,109.761 338.883,115.594 333.5,125C 328.439,127.259 323.105,128.092 317.5,127.5C 317.334,122.821 317.501,118.155 318,113.5C 319.707,110.41 322.207,108.41 325.5,107.5 Z M 289.5,144.5 C 293.167,144.5 296.833,144.5 300.5,144.5C 300.5,167.833 300.5,191.167 300.5,214.5C 296.833,214.5 293.167,214.5 289.5,214.5C 289.5,191.167 289.5,167.833 289.5,144.5 Z M 256.5,231.5 C 282.167,231.5 307.833,231.5 333.5,231.5C 334.124,235.013 333.124,237.847 330.5,240C 306.5,240.667 282.5,240.667 258.5,240C 256.686,237.519 256.02,234.685 256.5,231.5 Z M 269.5,257.5 C 286.833,257.5 304.167,257.5 321.5,257.5C 322.155,261.355 320.821,264.188 317.5,266C 302.5,266.667 287.5,266.667 272.5,266C 269.875,263.804 268.875,260.97 269.5,257.5 Z M 282.5,283.5 C 290.833,283.5 299.167,283.5 307.5,283.5C 307.945,286.365 307.278,288.865 305.5,291C 298.5,291.667 291.5,291.667 284.5,291C 282.722,288.865 282.055,286.365 282.5,283.5 Z"/></g>
<g><path style="opacity:0.899" fill="#000000" d="M 171.5,53.5 C 174.187,53.3359 176.854,53.5026 179.5,54C 186.268,57.7722 192.768,61.9389 199,66.5C 201.161,75.662 197.661,79.8287 188.5,79C 181.25,75.461 174.417,71.2943 168,66.5C 165.635,61.1096 166.801,56.7762 171.5,53.5 Z"/></g>
<g><path style="opacity:0.902" fill="#000000" d="M 410.5,53.5 C 421.485,52.4569 424.985,57.1235 421,67.5C 413.872,72.5638 406.205,76.5638 398,79.5C 390.347,77.3715 388.18,72.7049 391.5,65.5C 397.729,61.2254 404.062,57.2254 410.5,53.5 Z"/></g>
<g><path style="opacity:0.916" fill="#000000" d="M 152.5,122.5 C 161.506,122.334 170.506,122.5 179.5,123C 181.333,123.5 182.5,124.667 183,126.5C 185.13,133.077 182.964,137.244 176.5,139C 168.436,139.863 160.436,139.53 152.5,138C 147.208,132.835 147.208,127.668 152.5,122.5 Z"/></g>
<g><path style="opacity:0.907" fill="#000000" d="M 410.5,122.5 C 419.506,122.334 428.506,122.5 437.5,123C 442.833,128 442.833,133 437.5,138C 428.167,140 418.833,140 409.5,138C 404.043,132.368 404.377,127.201 410.5,122.5 Z"/></g>
<g><path style="opacity:0.899" fill="#000000" d="M 189.5,181.5 C 197.992,181.79 201.158,186.124 199,194.5C 191.878,200.313 184.045,204.98 175.5,208.5C 167.636,206.754 165.136,202.088 168,194.5C 175.095,189.874 182.262,185.541 189.5,181.5 Z"/></g>
<g><path style="opacity:0.901" fill="#000000" d="M 396.5,181.5 C 397.873,181.343 399.207,181.51 400.5,182C 407.167,185.667 413.833,189.333 420.5,193C 424.662,200.724 422.662,205.891 414.5,208.5C 407.082,204.957 399.749,201.123 392.5,197C 388.04,190.228 389.373,185.061 396.5,181.5 Z"/></g>
<g><path style="opacity:0.934" fill="#000000" d="M 448.5,210.5 C 465.679,209.849 475.345,218.016 477.5,235C 476.808,246.888 471.808,256.388 462.5,263.5C 466.485,267.985 470.651,272.318 475,276.5C 476.879,279.8 476.879,283.134 475,286.5C 466.167,295.333 457.333,304.167 448.5,313C 439.83,316.911 434.663,314.078 433,304.5C 427.684,296.752 420.517,293.918 411.5,296C 409.11,308.544 414.11,316.544 426.5,320C 430.662,323.478 431.496,327.644 429,332.5C 421.5,340 414,347.5 406.5,355C 403.167,357 399.833,357 396.5,355C 375.333,333.833 354.167,312.667 333,291.5C 331.578,288.97 331.245,286.303 332,283.5C 354.805,259.695 377.972,236.195 401.5,213C 404.833,211 408.167,211 411.5,213C 415.682,217.349 420.015,221.515 424.5,225.5C 430.67,217.423 438.67,212.423 448.5,210.5 Z M 450.5,227.5 C 457.642,227.141 460.809,230.474 460,237.5C 457.096,246.07 451.263,251.57 442.5,254C 439.098,257.719 438.598,261.886 441,266.5C 445.833,271.333 450.667,276.167 455.5,281C 452,284.5 448.5,288 445,291.5C 431.85,277.202 416.684,274.369 399.5,283C 391.95,293.07 390.783,303.903 396,315.5C 398.538,320.874 402.038,325.54 406.5,329.5C 404.851,331.65 403.018,333.65 401,335.5C 384.653,319.319 368.486,302.986 352.5,286.5C 369.986,268.514 387.653,250.681 405.5,233C 406.167,232.333 406.833,232.333 407.5,233C 412.167,237.667 416.833,242.333 421.5,247C 425.167,249 428.833,249 432.5,247C 435.623,237.715 441.623,231.215 450.5,227.5 Z"/></g>
<g><path style="opacity:0.932" fill="#000000" d="M 53.5,267.5 C 63.4762,266.74 71.3095,270.406 77,278.5C 78.6873,283.603 80.5206,288.603 82.5,293.5C 111.691,285.159 141.024,277.326 170.5,270C 188.957,265.921 206.29,268.588 222.5,278C 248.652,297.585 276.318,314.919 305.5,330C 320.862,341.425 325.362,356.259 319,374.5C 317.114,378.44 314.614,381.94 311.5,385C 320.262,384.315 328.929,382.648 337.5,380C 374.583,369.304 411.917,359.638 449.5,351C 462.843,348.963 475.51,350.963 487.5,357C 502.369,367.606 507.202,381.773 502,399.5C 498.656,410.177 491.823,417.677 481.5,422C 414.715,442.446 347.715,462.112 280.5,481C 267.713,482.678 255.38,481.011 243.5,476C 205.422,454.546 167.588,432.712 130,410.5C 124.62,412.012 119.287,413.678 114,415.5C 115.4,423.283 116.9,431.117 118.5,439C 118.352,446.452 115.352,452.452 109.5,457C 97.1267,461.594 84.46,465.261 71.5,468C 60.1073,469.386 51.9406,464.886 47,454.5C 33.0407,402.329 19.874,349.996 7.5,297.5C 7.00893,288.981 10.3423,282.481 17.5,278C 29.5159,274.167 41.5159,270.667 53.5,267.5 Z M 55.5,284.5 C 60.8041,284.974 63.6375,287.974 64,293.5C 76.344,341.876 88.844,390.21 101.5,438.5C 101.072,441.429 99.4054,443.263 96.5,444C 86.9352,446.266 77.4352,448.766 68,451.5C 64.3813,450.617 62.3813,448.283 62,444.5C 49.4194,395.677 36.9194,346.844 24.5,298C 24.2249,294.94 25.5583,292.94 28.5,292C 37.7502,289.941 46.7502,287.441 55.5,284.5 Z M 178.5,285.5 C 190.603,283.894 201.936,286.061 212.5,292C 240.145,312.497 269.145,330.997 299.5,347.5C 307.306,355.918 307.306,364.418 299.5,373C 292.448,378.589 285.115,378.923 277.5,374C 259.84,364.505 242.507,354.505 225.5,344C 214.97,342.192 211.137,346.359 214,356.5C 237.149,371.662 261.316,385.162 286.5,397C 298.49,401.248 310.823,402.581 323.5,401C 362.219,390.872 400.885,380.538 439.5,370C 451.534,366.829 463.534,366.829 475.5,370C 485.048,374.6 488.548,382.1 486,392.5C 484.377,398.457 480.877,402.957 475.5,406C 415.121,423.845 354.788,441.845 294.5,460C 275.664,467.226 257.664,465.56 240.5,455C 205.664,434.414 170.664,414.081 135.5,394C 132.5,393.333 129.5,393.333 126.5,394C 120.565,395.817 114.565,397.317 108.5,398.5C 101.007,368.86 93.6734,339.194 86.5,309.5C 117.277,301.474 147.943,293.474 178.5,285.5 Z"/></g>
<g><path style="opacity:0.881" fill="#000000" d="M 44.5,297.5 C 53.9911,297.493 57.8244,302.159 56,311.5C 55.1667,313.667 53.6667,315.167 51.5,316C 40.8382,318.336 36.3382,314.169 38,303.5C 39.4361,300.558 41.6028,298.558 44.5,297.5 Z"/></g>
</svg>
