<?xml version="1.0" encoding="UTF-8"?>
<!DOCTYPE svg PUBLIC "-//W3C//DTD SVG 1.1//EN" "http://www.w3.org/Graphics/SVG/1.1/DTD/svg11.dtd">
<svg xmlns="http://www.w3.org/2000/svg" version="1.1" width="512px" height="512px" style="shape-rendering:geometricPrecision; text-rendering:geometricPrecision; image-rendering:optimizeQuality; fill-rule:evenodd; clip-rule:evenodd" xmlns:xlink="http://www.w3.org/1999/xlink">
<g><path style="opacity:0.933" fill="#000000" d="M -0.5,229.5 C -0.5,225.5 -0.5,221.5 -0.5,217.5C 2.96977,200.361 6.13644,183.028 9,165.5C 11.5936,154.576 18.0936,147.076 28.5,143C 35.7608,141.652 43.0941,141.152 50.5,141.5C 47.6984,137.178 44.1984,133.178 40,129.5C 31.3536,117.255 27.5203,103.589 28.5,88.5C 27.7186,52.6241 45.0519,32.6241 80.5,28.5C 105.961,30.1275 122.461,43.1275 130,67.5C 132,81.5 132,95.5 130,109.5C 126.887,121.446 120.387,131.112 110.5,138.5C 109.614,139.325 109.281,140.325 109.5,141.5C 126.487,138.011 139.653,143.345 149,157.5C 151.94,163.678 152.107,169.845 149.5,176C 144.962,178.303 140.795,177.803 137,174.5C 136.614,167.888 133.781,162.722 128.5,159C 122.258,157.63 115.925,157.13 109.5,157.5C 108.384,176.116 98.5508,186.449 80,188.5C 61.4598,186.46 51.6265,176.126 50.5,157.5C 45.1563,157.334 39.8229,157.501 34.5,158C 27.6564,160.842 24.1564,166.008 24,173.5C 21.1646,189.846 18.3312,206.18 15.5,222.5C 58.5,222.5 101.5,222.5 144.5,222.5C 143.224,214.853 142.391,207.187 142,199.5C 145.013,194.465 149.18,193.298 154.5,196C 155.701,196.903 156.535,198.069 157,199.5C 158.757,207.618 160.257,215.784 161.5,224C 161.273,230.893 157.939,235.559 151.5,238C 104.167,238.667 56.8333,238.667 9.5,238C 4.74518,236.739 1.41184,233.905 -0.5,229.5 Z M 75.5,44.5 C 89.1394,43.8216 100.139,48.8216 108.5,59.5C 90.0231,73.8329 69.3565,78.9996 46.5,75C 47.307,64.4201 52.307,56.0868 61.5,50C 66.0171,47.4455 70.6838,45.6121 75.5,44.5 Z M 114.5,74.5 C 115.657,83.3238 115.824,92.3238 115,101.5C 110.925,120.075 99.4245,130.408 80.5,132.5C 56.4662,129.463 44.4662,115.796 44.5,91.5C 70.2419,95.5643 93.5752,89.8976 114.5,74.5 Z M 66.5,146.5 C 75.174,149.035 83.8407,149.035 92.5,146.5C 94.1536,153.388 93.6536,160.055 91,166.5C 82.5415,174.875 74.8749,174.208 68,164.5C 66.7614,158.565 66.2614,152.565 66.5,146.5 Z"/></g>
<g><path style="opacity:0.939" fill="#000000" d="M 223.5,29.5 C 267.501,29.3333 311.501,29.5 355.5,30C 359.277,32.9109 360.444,36.7442 359,41.5C 357.786,43.0488 356.286,44.2155 354.5,45C 311.833,45.3333 269.167,45.6667 226.5,46C 220.1,47.3994 215.934,51.2327 214,57.5C 213.667,67.1667 213.333,76.8333 213,86.5C 211.99,90.8429 209.49,94.0096 205.5,96C 195.5,100.333 185.5,104.667 175.5,109C 184.167,112.667 192.833,116.333 201.5,120C 207.36,121.859 211.193,125.693 213,131.5C 213.333,141.167 213.667,150.833 214,160.5C 216.691,166.529 221.191,170.362 227.5,172C 292.5,172.667 357.5,172.667 422.5,172C 430.897,169.713 435.397,164.213 436,155.5C 436.667,124.5 436.667,93.5 436,62.5C 435.336,54.3344 431.169,48.8344 423.5,46C 409.5,45.6667 395.5,45.3333 381.5,45C 377.139,42.7742 375.639,39.2742 377,34.5C 377.833,32.3333 379.333,30.8333 381.5,30C 396.167,29.3333 410.833,29.3333 425.5,30C 437.286,32.4803 445.453,39.3136 450,50.5C 451.642,88.1199 451.975,125.787 451,163.5C 447.103,177.539 437.936,185.706 423.5,188C 357.5,188.667 291.5,188.667 225.5,188C 212.761,185.59 203.928,178.423 199,166.5C 197.933,156.207 197.099,145.874 196.5,135.5C 184.384,130.609 172.384,125.442 160.5,120C 153.347,113.601 152.68,106.601 158.5,99C 171.351,93.1628 184.184,87.3295 197,81.5C 197.333,72.5 197.667,63.5 198,54.5C 201.79,41.209 210.29,32.8757 223.5,29.5 Z"/></g>
<g><path style="opacity:0.923" fill="#000000" d="M 316.5,51.5 C 335.549,49.0965 348.382,56.7631 355,74.5C 357.911,93.0227 350.745,105.689 333.5,112.5C 332.669,119.476 332.169,126.476 332,133.5C 329.005,137.723 325.171,138.889 320.5,137C 318.951,135.786 317.785,134.286 317,132.5C 316.333,122.5 316.333,112.5 317,102.5C 317.465,101.069 318.299,99.9025 319.5,99C 328.434,99.0457 334.934,95.2124 339,87.5C 339.717,70.2192 331.884,64.3859 315.5,70C 313.641,71.5578 312.141,73.3911 311,75.5C 310.15,79.61 308.984,83.61 307.5,87.5C 303.295,91.4463 299.128,91.4463 295,87.5C 292.294,69.6876 299.46,57.6876 316.5,51.5 Z"/></g>
<g><path style="opacity:0.859" fill="#000000" d="M 320.5,143.5 C 331.528,142.401 334.861,146.901 330.5,157C 326.202,160.385 322.035,160.219 318,156.5C 315.606,151.527 316.44,147.194 320.5,143.5 Z"/></g>
<g><path style="opacity:0.939" fill="#000000" d="M 86.5,272.5 C 123.835,272.333 161.168,272.5 198.5,273C 203.224,275.435 204.724,279.269 203,284.5C 201.786,286.049 200.286,287.215 198.5,288C 161.833,288.333 125.167,288.667 88.5,289C 80.1027,291.287 75.6027,296.787 75,305.5C 74.3333,336.5 74.3333,367.5 75,398.5C 75.6504,405.644 79.1504,410.811 85.5,414C 151.776,415.656 218.109,415.989 284.5,415C 290.449,413.108 294.616,409.275 297,403.5C 297.333,393.833 297.667,384.167 298,374.5C 299.807,368.693 303.64,364.859 309.5,363C 318.167,359.333 326.833,355.667 335.5,352C 326.167,348 316.833,344 307.5,340C 302.572,338.073 299.406,334.573 298,329.5C 297.667,319.833 297.333,310.167 297,300.5C 295.037,294.269 290.87,290.436 284.5,289C 264.833,288.667 245.167,288.333 225.5,288C 220.465,284.987 219.298,280.82 222,275.5C 222.903,274.299 224.069,273.465 225.5,273C 245.833,272.333 266.167,272.333 286.5,273C 300.476,275.644 309.31,283.811 313,297.5C 313.333,306.5 313.667,315.5 314,324.5C 326.092,330.129 338.259,335.629 350.5,341C 358.489,348.287 358.489,355.62 350.5,363C 338.364,368.737 326.031,373.904 313.5,378.5C 313.666,387.839 313.5,397.173 313,406.5C 309.31,420.189 300.476,428.356 286.5,431C 219.833,431.667 153.167,431.667 86.5,431C 72.5238,428.356 63.6904,420.189 60,406.5C 59.3333,370.167 59.3333,333.833 60,297.5C 63.8956,283.767 72.7289,275.434 86.5,272.5 Z"/></g>
<g><path style="opacity:0.934" fill="#000000" d="M 511.5,461.5 C 511.5,465.5 511.5,469.5 511.5,473.5C 509.588,477.905 506.255,480.739 501.5,482C 454.5,482.667 407.5,482.667 360.5,482C 353.49,479.987 349.823,475.32 349.5,468C 352.899,445.671 357.066,423.504 362,401.5C 365.619,394.549 371.119,389.716 378.5,387C 386.095,385.644 393.762,385.144 401.5,385.5C 401.649,384.448 401.483,383.448 401,382.5C 384.639,369.951 377.472,353.284 379.5,332.5C 377.658,311.831 384.658,294.997 400.5,282C 421.394,269.112 442.06,269.445 462.5,283C 477.268,296.12 483.935,312.62 482.5,332.5C 484.136,353.13 476.969,369.797 461,382.5C 460.517,383.448 460.351,384.448 460.5,385.5C 475.793,382.431 488.293,386.765 498,398.5C 499.927,401.948 501.261,405.615 502,409.5C 504.864,427.028 508.03,444.361 511.5,461.5 Z M 425.5,288.5 C 439.312,287.574 450.646,292.407 459.5,303C 441.04,317.447 420.373,322.781 397.5,319C 396.91,311.323 399.577,304.823 405.5,299.5C 411.099,293.704 417.766,290.038 425.5,288.5 Z M 463.5,319.5 C 464.931,319.881 465.764,320.881 466,322.5C 466.941,332.613 466.275,342.613 464,352.5C 456.443,369.444 443.443,377.111 425,375.5C 404.726,369.98 394.893,356.646 395.5,335.5C 420.444,339.262 443.111,333.929 463.5,319.5 Z M 417.5,390.5 C 426.491,393.164 435.491,393.164 444.5,390.5C 445.232,397.856 444.066,404.856 441,411.5C 433.677,418.172 426.677,417.839 420,410.5C 417.735,404.058 416.901,397.391 417.5,390.5 Z M 384.5,401.5 C 390.167,401.5 395.833,401.5 401.5,401.5C 402.569,420.071 412.402,430.404 431,432.5C 449.547,430.453 459.38,420.12 460.5,401.5C 465.844,401.334 471.177,401.501 476.5,402C 480.974,403.808 484.141,406.974 486,411.5C 489.169,429.846 492.335,448.18 495.5,466.5C 452.5,466.5 409.5,466.5 366.5,466.5C 369.124,447.754 372.291,429.087 376,410.5C 377.688,406.315 380.521,403.315 384.5,401.5 Z"/></g>
<g><path style="opacity:0.929" fill="#000000" d="M 112.5,317.5 C 161.834,317.333 211.168,317.5 260.5,318C 265.535,321.013 266.702,325.18 264,330.5C 263.097,331.701 261.931,332.535 260.5,333C 211.167,333.667 161.833,333.667 112.5,333C 107.465,329.987 106.298,325.82 109,320.5C 110.145,319.364 111.312,318.364 112.5,317.5 Z"/></g>
<g><path style="opacity:0.93" fill="#000000" d="M 111.5,370.5 C 161.168,370.333 210.834,370.5 260.5,371C 265.568,373.983 266.735,378.149 264,383.5C 262.829,384.893 261.329,385.727 259.5,386C 210.833,386.667 162.167,386.667 113.5,386C 109.488,385.151 107.488,382.651 107.5,378.5C 107.782,375.269 109.115,372.602 111.5,370.5 Z"/></g>
</svg>
