<svg xmlns="http://www.w3.org/2000/svg" viewBox="0 0 535.77 532.6"><path d="M501.5,203.73a.52.52,0,0,1-.52-.52h0V138.8a.52.52,0,0,0-.26-.45L270,4.88a.53.53,0,0,0-.52,0L39,138.32a.52.52,0,0,0-.26.45v64.47a.52.52,0,0,1-.52.52l-34.45-.07a.52.52,0,0,0-.52.52h0V337a.52.52,0,0,0,.14.36l35.71,38.17a.54.54,0,0,1,.14.36l0,27.05a.51.51,0,0,0,.26.45l230,132a.53.53,0,0,0,.52,0L500.72,402.62a.51.51,0,0,0,.26-.45v-27a.54.54,0,0,1,.14-.36l35.71-38a.52.52,0,0,0,.14-.36l0-132.27a.52.52,0,0,0-.52-.52h-35" transform="translate(-2.23 -3.81)" style="fill:none;stroke:#83d4fe;stroke-width:2px"/><path d="M270.07,18.91a.66.66,0,0,0-.64,0L51.12,144.77a.63.63,0,0,0-.32.55v57a.64.64,0,0,0,.64.64H488.11a.64.64,0,0,0,.64-.64h0l0-57a.63.63,0,0,0-.32-.55L270.07,18.91" transform="translate(-2.23 -3.81)" style="fill:none;stroke:#83d4fe;stroke-width:2px"/><path d="M15.88,215.75a.38.38,0,0,0-.38.38V324.65a.38.38,0,0,0,.38.38H525.1a.38.38,0,0,0,.38-.38h0V216.14a.38.38,0,0,0-.38-.38H15.88" transform="translate(-2.23 -3.81)" style="fill:none;stroke:#83d4fe;stroke-width:2px"/><path d="M20.38,336.58a.33.33,0,0,0-.33.33.32.32,0,0,0,.09.23l18.07,19.07a.33.33,0,0,0,.47,0,.35.35,0,0,0,.1-.24l-.05-18.86a.33.33,0,0,0-.33-.33h0l-18-.21" transform="translate(-2.23 -3.81)" style="fill:none;stroke:#83d4fe;stroke-width:2px"/><path d="M50.76,395.05a.34.34,0,0,0,.17.3l218.64,126a.34.34,0,0,0,.34,0l218.64-126a.34.34,0,0,0,.17-.3l0-57.48a.34.34,0,0,0-.34-.34H51.07a.34.34,0,0,0-.34.34h0l0,57.49" transform="translate(-2.23 -3.81)" style="fill:none;stroke:#83d4fe;stroke-width:2px"/><path d="M500.89,356.75a.34.34,0,0,0,.34.34.35.35,0,0,0,.24-.1l18.09-19.23a.34.34,0,0,0-.25-.58l-17.95.06a.34.34,0,0,0-.34.34l-.13,19.17" transform="translate(-2.23 -3.81)" style="fill:none;stroke:#83d4fe;stroke-width:2px"/><path d="M236.87,165.08a15.8,15.8,0,0,1,.65,2.78c1.31,9.27,10.52,11.91,18.53,11.63a157.24,157.24,0,0,0,20.46-2c6.54-1.1,13.15-.32,19.65-1.66a7.68,7.68,0,0,0,5.58-4.79c3.81-8.53,7.73-16.7,10-26,1.43-6,1.42-13.2-4.88-16a29.72,29.72,0,0,1-10.39-7.31,87.83,87.83,0,0,0-8.72-8.82q-6.66-5.61-11.83-10.25c-5.4-4.83-8.54-11.12-11.88-17.49-3.48-6.64-9.94-6.37-13.93-.68q-3,4.28-1.9,10.71c1,6.11,4,10.48,8,15,1.54,1.73,4,6.5.69,7.82a9.91,9.91,0,0,1-3.46.68q-6.13.12-12.38.69a19.18,19.18,0,0,0-7.38,2.08c-5.24,2.84-6.12,9.9-3.3,14.76.37.62.7,1.25,1,1.88a1.39,1.39,0,0,1,0,1.24c-2.16,4.14-.61,8.2,1.77,12a1.08,1.08,0,0,1,.1.94q-2.72,7.59,3.16,12.12a1.64,1.64,0,0,1,.55.77" transform="translate(-2.23 -3.81)" style="fill:none;stroke:#83d4fe;stroke-width:2px"/><path d="M262.67,107c6.61,8.84,1.63,18.68-9.25,18.88q-6.15.12-12.81.47A5.44,5.44,0,0,0,235.9,129a1.91,1.91,0,0,0-.27.91c-.13,2.23.77,3.32,2.68,3.25q9.21-.32,19.23-.14a3.37,3.37,0,0,1,3.7,3.5,1.89,1.89,0,0,1-.15.94c-.76,1.8-1.76,2.7-3,2.7q-9,0-17.28.14c-2.53,0-3.61,1.29-3.24,3.8,0,.16,0,.25,0,.26q.55,3.79,4.5,3.69,6.25-.17,12.48,0a3.22,3.22,0,0,1,3.29,2.56,2.78,2.78,0,0,1,.09,1,3.25,3.25,0,0,1-3.65,3.38H240.9q-2.27,0-1.44,2.1l.21.53a3.09,3.09,0,0,0,3.25,2.14c2.57-.09,8.45-1,8.75,3s-3.46,4.39-6.35,3.94a.73.73,0,0,0-.84.61.8.8,0,0,0,.1.5,8.5,8.5,0,0,0,6.66,4.31q8.17.85,20.5-1.06a122.37,122.37,0,0,1,21.59-1.6,1.91,1.91,0,0,0,1.81-1.15c4-9,7.94-17.6,10.07-27.45a6.88,6.88,0,0,0-.47-4.54,1.35,1.35,0,0,0-.73-.7,35.45,35.45,0,0,1-11.88-8.07c-3.1-3.32-5.89-6.8-9.51-9.76q-6.89-5.62-12.27-10.69c-5.8-5.46-9.21-12.6-13.23-19.52a.28.28,0,0,0-.39-.11.39.39,0,0,0-.1.08c-5.12,6.8,2.34,14.54,6,19.5" transform="translate(-2.23 -3.81)" style="fill:none;stroke:#83d4fe;stroke-width:2px"/><path d="M455.15,263.6a23.23,23.23,0,0,0-23.23-23.23h-4.5a23.23,23.23,0,0,0-23.23,23.23v6.28a23.23,23.23,0,0,0,23.23,23.23h4.5a23.23,23.23,0,0,0,23.23-23.23V263.6" transform="translate(-2.23 -3.81)" style="fill:none;stroke:#83d4fe;stroke-width:2px"/><path d="M91.08,251.89l-.16,30.76a.61.61,0,0,1-.65.68l-1.84.1a.59.59,0,0,0-.63.6l-.57,7.23a.78.78,0,0,0,.72.84H88l20.95.14a.89.89,0,0,0,1-1l.07-7q0-1.23-1.2-1a5.46,5.46,0,0,1-2.1-.08.69.69,0,0,1-.53-.67l0-6.68a.58.58,0,0,1,.58-.58h0a37.79,37.79,0,0,0,7-.6,1.13,1.13,0,0,1,1.21.59l3.71,7.23a.57.57,0,0,1-.26.78.58.58,0,0,1-.26.06l-3.25,0a.65.65,0,0,0-.75.73l0,7.24a.87.87,0,0,0,1,1h25.86a1.16,1.16,0,0,0,1.31-1.3l0-6.43c0-1-.49-1.43-1.48-1.26a5.6,5.6,0,0,1-2.24-.06,1.31,1.31,0,0,1-.86-.64l-10.06-17.34a2.26,2.26,0,0,1-.13-2c2.74-6.61,5.56-14,14.66-11.62.15,0,.23,0,.23-.17l-.13-9.58a.2.2,0,0,0-.19-.22,38.17,38.17,0,0,0-12.56.18c-9.93,1.91-11.36,8.59-14.34,16.59q-2,5.34-8.26,5.9c-.56.05-.84-.2-.84-.76V251.72a.51.51,0,0,1,.51-.51h4.49a.74.74,0,0,0,.76-.74h0l.08-8.7a.55.55,0,0,0-.53-.56H88a.66.66,0,0,0-.75.75v8.34a.84.84,0,0,0,.83.84l2.32,0a.61.61,0,0,1,.69.7" transform="translate(-2.23 -3.81)" style="fill:none;stroke:#83d4fe;stroke-width:2px"/><path d="M149.1,282.34,147,282.2a.7.7,0,0,0-.86.79l-.08,8.22a.82.82,0,0,0,.93,1l36,0a1.67,1.67,0,0,1,1.23.54q3.56,3.92,7.12,8.1a3.63,3.63,0,0,0,2.9,1.35q3.25,0,6.33,0a.92.92,0,0,0,.94-.89.85.85,0,0,0-.07-.39q-1.44-3.29-2.68-6.69c-1.29-3.59-1-7.53-1.26-11.31a.69.69,0,0,0-.78-.73h-1.84a.61.61,0,0,1-.69-.67,262.08,262.08,0,0,1,.32-29.22,1.24,1.24,0,0,1,.45-.88l1.55-1.28a1.72,1.72,0,0,0,.62-1.19l.61-6.78a.79.79,0,0,0-.72-.86H197l-21.88-.16a.53.53,0,0,0-.61.59,54,54,0,0,0,.54,7.58,1.79,1.79,0,0,0,.63,1.16,4.37,4.37,0,0,0,1.19.71A1.87,1.87,0,0,1,178,252.7c1.38,9.27,1,19.28.9,28.85a.67.67,0,0,1-.66.66l-12.13.06a.8.8,0,0,1-.9-.92l.48-29.76a.54.54,0,0,1,.55-.53h0c1.13.07,2.46-.21,2.72-1.52a38.9,38.9,0,0,0,.79-7.43.71.71,0,0,0-.8-.81l-22-.1a.87.87,0,0,0-1,1l.1,8a.94.94,0,0,0,1.07,1l2.53,0q.51,0,.51.51l0,29.6a1,1,0,0,1-1,1h-.07" transform="translate(-2.23 -3.81)" style="fill:none;stroke:#83d4fe;stroke-width:2px"/><path d="M276.2,272.28a53.17,53.17,0,0,1,11.89-.07,1.16,1.16,0,0,1,1,1.26l-.71,8.06a.73.73,0,0,1-.52.68l-1.51.57a1.24,1.24,0,0,0-.78,1l-.66,7.48a.51.51,0,0,0,.55.63q11.38.49,22.11.05a.57.57,0,0,0,.61-.68l-.44-7.16a1.63,1.63,0,0,0-.64-1.22,4.12,4.12,0,0,0-1.48-.74.93.93,0,0,1-.73-.88,186.24,186.24,0,0,1-.08-29.12,1.31,1.31,0,0,1,.38-.83,3.3,3.3,0,0,1,1.1-.71,1.62,1.62,0,0,0,1-1.11,34.22,34.22,0,0,0,1-7.32.72.72,0,0,0-.81-.85l-21.8-.14a.78.78,0,0,0-.78.78v.06l.67,7.85a1.06,1.06,0,0,0,.84.95,2.24,2.24,0,0,1,2,2,52.26,52.26,0,0,1,.54,7.79,1.54,1.54,0,0,1-1.36,1.53,49.82,49.82,0,0,1-11.38,0,.62.62,0,0,1-.55-.64l.33-9.11a.83.83,0,0,1,.55-.79l2-.82a1.38,1.38,0,0,0,.85-1.17l.67-7.77a.44.44,0,0,0-.4-.48h0l-22.26-.11a.64.64,0,0,0-.73.73l.13,8.11a1,1,0,0,0,1.11,1.11l1.89,0a.54.54,0,0,1,.6.6q.35,15-.13,29.79a.8.8,0,0,1-.5.75,2.45,2.45,0,0,1-1.4.17c-.77-.13-1.18.19-1.22,1l-.37,7.63a.84.84,0,0,0,.94,1l21.5,0a.63.63,0,0,0,.72-.76l-.41-8a.89.89,0,0,0-.78-.85l-1.92-.24a1.11,1.11,0,0,1-1-1.08l-.19-8.2a.64.64,0,0,1,.64-.73" transform="translate(-2.23 -3.81)" style="fill:none;stroke:#83d4fe;stroke-width:2px"/><path d="M331.64,251.25l10.33,0a.69.69,0,0,1,.77.74l.15,3.8a.93.93,0,0,0,.88.89l10.24.49a1.06,1.06,0,0,0,1.12-1v-.09q-.24-7.09.14-14.24a.56.56,0,0,0-.53-.6h-42a1,1,0,0,0-1.14,1.2l.39,7.17a1.51,1.51,0,0,0,1.59,1.42h0a2.83,2.83,0,0,1,1.51.26.85.85,0,0,1,.53.78,291.72,291.72,0,0,1,.19,29.71.67.67,0,0,1-.7.72l-1.56.11a1.28,1.28,0,0,0-1.32,1.3l-.57,7.5a.59.59,0,0,0,.66.71l42.19.08a.6.6,0,0,0,.6-.6h0l-.06-14.44a.94.94,0,0,0-.95-.93h0l-10.89.34a.56.56,0,0,0-.61.64l0,3.88a.88.88,0,0,1-1,1l-9.52.18a.84.84,0,0,1-.86-.81v0l-.06-9.6a.53.53,0,0,1,.62-.6,85.68,85.68,0,0,0,12-.33,1.22,1.22,0,0,0,1.11-1.23l-.08-6.91a1.27,1.27,0,0,0-1.43-1.43l-11.78-.11a.28.28,0,0,1-.32-.31l-.09-9.33a.29.29,0,0,1,.32-.32" transform="translate(-2.23 -3.81)" style="fill:none;stroke:#83d4fe;stroke-width:2px"/><path d="M377.51,261.56l0-9.62a.66.66,0,0,1,.74-.74l9.71,0a.65.65,0,0,1,.73.75l-.12,4.52a.66.66,0,0,0,.64.67h0l11,.07a.76.76,0,0,0,.77-.76h0l.05-14.84a.41.41,0,0,0-.41-.41h0l-41.37,0a.56.56,0,0,0-.56.56v0q.27,3.57.79,7.61a1.78,1.78,0,0,0,1.5,1.67,1.3,1.3,0,0,1,1.08,1.14,86.73,86.73,0,0,1,.61,9.75q0,8.85-.13,20.63a.7.7,0,0,1-.76.78l-1.47,0a1.15,1.15,0,0,0-1.24,1.2l-.37,6.56a.84.84,0,0,0,.94,1q11.77.07,24.78,0c11-.08,18.85-5.45,17.42-17.57-1-8.39-9.82-12.21-17.44-12.37q-3.17-.06-6.18,0a.62.62,0,0,1-.73-.71" transform="translate(-2.23 -3.81)" style="fill:none;stroke:#83d4fe;stroke-width:2px"/><path d="M53.55,262.65a.63.63,0,0,0,.63.55h8.07a.63.63,0,0,0,.63-.55l2.39-19.75a.62.62,0,0,0-.55-.69h-.07l-12.91-.05a.63.63,0,0,0-.63.63v.08l2.44,19.78" transform="translate(-2.23 -3.81)" style="fill:none;stroke:#83d4fe;stroke-width:2px"/><path d="M71.6,262.62a.63.63,0,0,0,.62.55l8.12.05a.63.63,0,0,0,.63-.56L83.31,243a.62.62,0,0,0-.54-.7h-.08l-12.87-.09a.63.63,0,0,0-.63.63v.07l2.41,19.77" transform="translate(-2.23 -3.81)" style="fill:none;stroke:#83d4fe;stroke-width:2px"/><path d="M240.63,262.73a.51.51,0,0,0,.5.45l8.31,0a.5.5,0,0,0,.5-.45l2.43-20a.52.52,0,0,0-.44-.57h-.06l-13.18-.06a.51.51,0,0,0-.51.51v.06l2.45,20" transform="translate(-2.23 -3.81)" style="fill:none;stroke:#83d4fe;stroke-width:2px"/><path d="M461.42,262.66a.62.62,0,0,0,.61.54l8.06,0a.61.61,0,0,0,.62-.55l2.42-19.78a.6.6,0,0,0-.54-.68h-.07l-13-.06a.62.62,0,0,0-.62.62v.08l2.52,19.81" transform="translate(-2.23 -3.81)" style="fill:none;stroke:#83d4fe;stroke-width:2px"/><path d="M479.44,262.57a.73.73,0,0,0,.72.63h7.89a.72.72,0,0,0,.72-.63L491.2,243a.72.72,0,0,0-.62-.8h-.09l-12.77,0a.72.72,0,0,0-.72.72V243l2.44,19.6" transform="translate(-2.23 -3.81)" style="fill:none;stroke:#83d4fe;stroke-width:2px"/><path d="M222.57,262.75a.5.5,0,0,0,.49.44l8.27,0a.5.5,0,0,0,.5-.44l2.5-20a.49.49,0,0,0-.43-.55h-.06l-13.24-.05a.5.5,0,0,0-.5.5v.06l2.47,20" transform="translate(-2.23 -3.81)" style="fill:none;stroke:#83d4fe;stroke-width:2px"/><path d="M429.73,282.37c4.25,0,7.63-7.1,7.54-15.77S433.66,251,429.4,251h0c-4.26,0-7.64,7.11-7.55,15.77s3.62,15.66,7.88,15.61h0" transform="translate(-2.23 -3.81)" style="fill:none;stroke:#83d4fe;stroke-width:2px"/><path d="M377.48,270.85l.06,11.74a.71.71,0,0,0,.7.69h3.37a5.93,5.93,0,0,0,6.12-5.72h0v-1.76a5.93,5.93,0,0,0-6.18-5.65h-3.37a.7.7,0,0,0-.7.7h0" transform="translate(-2.23 -3.81)" style="fill:none;stroke:#83d4fe;stroke-width:2px"/><path d="M322.1,371a6.72,6.72,0,0,1-1.83-1.71.59.59,0,0,0-.71-.23.53.53,0,0,0-.3.23.81.81,0,0,0-.05.77c1.69,3.78,5.46,3.3,7-.24a.36.36,0,0,0-.27-.56l-.37-.09a1,1,0,0,0-1.16.52,3.71,3.71,0,0,1-1,1.24,1.08,1.08,0,0,1-1.24.07" transform="translate(-2.23 -3.81)" style="fill:none;stroke:#83d4fe;stroke-width:2px"/><path d="M138.69,377.4l.21-4.48a.88.88,0,0,0-.72-.9l-.27,0a.51.51,0,0,0-.58.43.17.17,0,0,0,0,.07l.05,11.5a.74.74,0,0,0,.72.74h.4c.35,0,.51-.16.49-.5l-.19-4a.62.62,0,0,1,.57-.71,3.9,3.9,0,0,1,3.9,1.12,32.86,32.86,0,0,0,4,3.77,1.56,1.56,0,0,0,1.25.31l.6-.11c.39-.07.42-.22.11-.46a42.66,42.66,0,0,1-5.64-5.27.55.55,0,0,1,0-.86l5.46-5.41c.26-.26.21-.41-.16-.44l-.74-.06a1.28,1.28,0,0,0-1.09.41c-1.5,1.57-3,3.18-4.45,4.85a3.55,3.55,0,0,1-3.3.76.64.64,0,0,1-.6-.74" transform="translate(-2.23 -3.81)" style="fill:none;stroke:#83d4fe;stroke-width:2px"/><path d="M165.39,377.42l.1-4.64a.66.66,0,0,0-.61-.67l-.35,0a.78.78,0,0,0-.83.71v.13a53.76,53.76,0,0,1,0,10.84.9.9,0,0,0,.8,1h.42a.47.47,0,0,0,.49-.47h0l-.05-4c0-.55.26-.79.81-.73a36.85,36.85,0,0,0,7.5,0,.76.76,0,0,1,.83.66v.12l-.2,3.66a.65.65,0,0,0,.61.69h.31c.49,0,.72-.24.68-.73a66.73,66.73,0,0,1,0-10.86.78.78,0,0,0-.59-.88l-.3-.1c-.65-.2-.91,0-.79.69a12.57,12.57,0,0,1,0,4.89.69.69,0,0,1-.74.6h-7.35a.69.69,0,0,1-.78-.8" transform="translate(-2.23 -3.81)" style="fill:none;stroke:#83d4fe;stroke-width:2px"/><path d="M233.6,381.39l-.15-.41a1.16,1.16,0,0,1,0-.45q.36-3.76.37-7.62a.68.68,0,0,0-.77-.77l-23.95,0q-3.54,0-3.49,3.54l.13,8.29a.54.54,0,0,0,.5.58l.44.07c.38.06.57-.1.56-.49l-.12-8.82a1.6,1.6,0,0,1,1.58-1.61h0l6.3,0a.91.91,0,0,1,1,1l0,9.15a.82.82,0,0,0,.61.83l.41.13a.57.57,0,0,0,.75-.54l.05-10.06a.55.55,0,0,1,.64-.62l4.51.1a.48.48,0,0,1,.52.53l.2,9.86c0,.68.35.92,1,.72l.26-.08a.56.56,0,0,0,.4-.49,61.3,61.3,0,0,0,.07-9.57.76.76,0,0,1,.81-.92l5-.28a.72.72,0,0,1,.75.68v0l-.1,9.68a1,1,0,0,0,1.72.71,76.22,76.22,0,0,0,7.72-9.24.7.7,0,0,1,.77-.25c.41.13.6.34.59.62-.11,2.91-.2,5.66-.25,8.26a.61.61,0,0,0,.55.68,1.31,1.31,0,0,0,1.08-.26.62.62,0,0,0,.21-.87,4.06,4.06,0,0,1-.4-2,42.1,42.1,0,0,0,.29-7.48q-.24-3.82-2.7-.88l-7,8.32a.51.51,0,0,1-.72.07.59.59,0,0,1-.15-.2" transform="translate(-2.23 -3.81)" style="fill:none;stroke:#83d4fe;stroke-width:2px"/><path d="M258.24,383.77a44,44,0,0,1-.09-10.75.71.71,0,0,0-.62-.79h0l-.46,0c-.43,0-.63.16-.62.59l.12,4.13q0,1.43-1.38,1.35a56.16,56.16,0,0,0-6.34,0c-.86,0-1.27-.36-1.24-1.22l.18-4.26a.59.59,0,0,0-.55-.67,2.54,2.54,0,0,0-1,0,.56.56,0,0,0-.47.67A65.93,65.93,0,0,1,246,384a.7.7,0,0,0,.6.74l.3.05c.6.09.88-.17.83-.77l-.24-3.31c-.05-.73.28-1.1,1-1.09l7.13.07a.85.85,0,0,1,1,1l-.19,3.36a.49.49,0,0,0,.47.52.29.29,0,0,0,.13,0l.75-.15a.5.5,0,0,0,.45-.63" transform="translate(-2.23 -3.81)" style="fill:none;stroke:#83d4fe;stroke-width:2px"/><path d="M285,372.71l0,11.38a.57.57,0,0,0,.57.57h0l8.35,0A3.15,3.15,0,0,0,297,381.4h0l0-6.08a3.15,3.15,0,0,0-3.09-3.21l-8.35,0a.58.58,0,0,0-.57.57h0" transform="translate(-2.23 -3.81)" style="fill:none;stroke:#83d4fe;stroke-width:2px"/><path d="M314.71,372.61a.54.54,0,0,0-.54-.54h-.6a.55.55,0,0,0-.54.55l.06,11.32a.54.54,0,0,0,.54.53h.6a.54.54,0,0,0,.54-.54l-.06-11.32" transform="translate(-2.23 -3.81)" style="fill:none;stroke:#83d4fe;stroke-width:2px"/><path d="M351,383.79a2,2,0,0,1-1.05-1.83q0-4.38-.26-9.31a.6.6,0,0,0-.5-.55l-.35-.05c-.56-.09-.84.15-.83.72l.18,10.2a.14.14,0,0,1-.14.15,58.84,58.84,0,0,1-8.91,0c-.09,0-.14-.06-.13-.15l.24-10.11a.79.79,0,0,0-.83-.91l-.43,0a.58.58,0,0,0-.62.55v.05l.05,11.25a.85.85,0,0,0,.85.84l10.48.07a1.09,1.09,0,0,1,.93.46l.72.9q.62.8,1.05-.12a2.08,2.08,0,0,0,.19-.75.59.59,0,0,1,.7-.64q6.85.27,15.34-.17c.56,0,.79-.32.68-.87a9.06,9.06,0,0,1-.09-2.93.86.86,0,0,1,.93-.81l7.11-.06a.73.73,0,0,1,.84.87l-.15,3.17a.86.86,0,0,0,.72.88l.41.06c.41.07.61-.11.62-.52l.2-9.59a.85.85,0,0,1,1-.94l3.75.09a1,1,0,0,1,.93,1l-.09,9.3a.65.65,0,0,0,.58.66l.73.08c.41.05.62-.14.63-.55l.23-9.67a.64.64,0,0,1,.68-.71l4.79-.3c.47,0,.7.2.69.67l-.19,9.87q0,.92.87.72l.33-.08a.38.38,0,0,0,.31-.36l.13-3a.66.66,0,0,1,.75-.7l6.31,0q3.78,0,3.81-3.76v-1.21c0-2.35-1.15-3.53-3.5-3.53H377.55a.49.49,0,0,0-.55.54l-.06,4.17a1.08,1.08,0,0,1-1.19,1.2l-5.82.15a1.51,1.51,0,0,1-1.76-1.75l.07-3.44a.67.67,0,0,0-.75-.77l-14.55-.06a.57.57,0,0,0-.57.57v0a70.78,70.78,0,0,1,.1,10.62c-.05.84-.44,1-1.15.59l-.33-.2" transform="translate(-2.23 -3.81)" style="fill:none;stroke:#83d4fe;stroke-width:2px"/><path d="M161.85,375.31a3.11,3.11,0,0,0-3.12-3.1h-5.84a3.09,3.09,0,0,0-3.1,3.11v6.12a3.11,3.11,0,0,0,3.11,3.11h5.84a3.12,3.12,0,0,0,3.11-3.12v-6.12" transform="translate(-2.23 -3.81)" style="fill:none;stroke:#83d4fe;stroke-width:2px"/><path d="M180.66,383.09a1.43,1.43,0,0,1-1.25-1.42v-6.34a1.73,1.73,0,0,1,1.72-1.73l5.35,0a1.1,1.1,0,0,1,.89.39l1.1,1.22c.73.8,1.08.66,1.06-.42a2.52,2.52,0,0,0-1-2,2.59,2.59,0,0,0-1.74-.61q-3,0-6,.05a2.82,2.82,0,0,0-2.81,2.59,39.12,39.12,0,0,0,.13,7.66,2.2,2.2,0,0,0,1.92,1.94c2.14.26,9,1.18,9.57-2,.23-1.35-.14-1.53-1.09-.55-1.93,2-5.53,1.54-7.83,1.24" transform="translate(-2.23 -3.81)" style="fill:none;stroke:#83d4fe;stroke-width:2px"/><path d="M202.24,381.54l-.13,2.28a.57.57,0,0,0,.56.68,2,2,0,0,0,.64,0c.48-.08.59-.33.32-.74a3.11,3.11,0,0,1-.37-1.61c.18-2.33.27-4.66.26-7a3,3,0,0,0-3.06-3h0l-6,.07a3.09,3.09,0,0,0-3,3.08l0,8.51a.89.89,0,0,0,.71.88l.42.1a.53.53,0,0,0,.63-.41.38.38,0,0,0,0-.15l-.2-2.39a1.22,1.22,0,0,1,1.11-1.3h7.25a.83.83,0,0,1,1,1" transform="translate(-2.23 -3.81)" style="fill:none;stroke:#83d4fe;stroke-width:2px"/><path d="M261.53,374.24a.71.71,0,0,1,.71-.71h.06a38.7,38.7,0,0,0,8.58-.21c.19,0,.25-.12.17-.3l-.1-.24a.9.9,0,0,0-.92-.59l-10,.05a.38.38,0,0,0-.38.38.59.59,0,0,0,0,.14q.9,2.48.27,11a.75.75,0,0,0,.62.79l.44.07a.44.44,0,0,0,.51-.36v-.08l0-10" transform="translate(-2.23 -3.81)" style="fill:none;stroke:#83d4fe;stroke-width:2px"/><path d="M283.22,375.2a3,3,0,0,0-3-3h-6.06a3,3,0,0,0-3,3h0v6.34a3,3,0,0,0,3,3h6.06a3,3,0,0,0,3-3h0V375.2" transform="translate(-2.23 -3.81)" style="fill:none;stroke:#83d4fe;stroke-width:2px"/><path d="M300.35,376.22l.12-3.24a.68.68,0,0,0-.75-.8h-.4c-.57,0-.83.26-.78.83a56,56,0,0,1,0,10.11,1.39,1.39,0,0,0,1.26,1.5h.11l7.33.07q3.66,0,3.76-3.63v-.42q-.06-3.54-3.6-3.53h-6.17a.86.86,0,0,1-.87-.85v0" transform="translate(-2.23 -3.81)" style="fill:none;stroke:#83d4fe;stroke-width:2px"/><path d="M315.94,373.71a3.58,3.58,0,0,1,.58,2.66,19.47,19.47,0,0,0,0,6.19,1.43,1.43,0,0,1-.15.95l-.12.23a.57.57,0,0,0,.23.76l.14.05a2.42,2.42,0,0,0,2.4-.83q3.45-3.77,6.6-7.58a2.3,2.3,0,0,1,.94-.69c.47-.19.69,0,.68.46l-.16,7.85a.8.8,0,0,0,.79.91l.28,0a.48.48,0,0,0,.6-.53l.08-10.34a1,1,0,0,0-1.75-.75,88.52,88.52,0,0,0-7.85,8.78,1.11,1.11,0,0,1-.7.43.52.52,0,0,1-.6-.41.49.49,0,0,1,0-.12l.27-7.73a1,1,0,0,0-1-1h-.08l-.89.05c-.49,0-.6.24-.32.65" transform="translate(-2.23 -3.81)" style="fill:none;stroke:#83d4fe;stroke-width:2px"/><path d="M273,491.57a.3.3,0,0,0,.34,0l67.2-41.27a.32.32,0,0,0,.1-.44.34.34,0,0,0-.26-.15H205.75a.32.32,0,0,0-.32.32.33.33,0,0,0,.15.27L273,491.57" transform="translate(-2.23 -3.81)" style="fill:none;stroke:#83d4fe;stroke-width:2px"/><path d="M294.12,378a1.28,1.28,0,0,0,1.24-1.25l.05-1.61a1.29,1.29,0,0,0-1.25-1.33h0l-6.43-.21a1.29,1.29,0,0,0-1.32,1.26V375l.17,2.06a1.28,1.28,0,0,0,1.34,1.17l6.2-.23" transform="translate(-2.23 -3.81)" style="fill:none;stroke:#83d4fe;stroke-width:2px"/><path d="M295.37,380.84a1.17,1.17,0,0,0-1.15-1.17h0l-6.58-.06a1.16,1.16,0,0,0-1.17,1.15V382a1.15,1.15,0,0,0,1.15,1.17h0l6.58.06a1.16,1.16,0,0,0,1.17-1.15v-1.26" transform="translate(-2.23 -3.81)" style="fill:none;stroke:#83d4fe;stroke-width:2px"/><path d="M363.44,379a.83.83,0,0,1-.93.76l-7-.16a1.28,1.28,0,0,0-1.44,1.18l-.12.63c-.23,1.36.34,2,1.71,2H365.8a.48.48,0,0,0,.49-.48l.17-8.46a1,1,0,0,0-1-1h0l-10.38.23c-.77,0-1.11.41-1,1.18.19,1.49.28,2.24.28,2.25a1.18,1.18,0,0,0,1.33,1.18c2.33-.07,4.8-.08,7.43,0a.39.39,0,0,1,.39.4s0,0,0,0l0,.25" transform="translate(-2.23 -3.81)" style="fill:none;stroke:#83d4fe;stroke-width:2px"/><path d="M403.51,375.1a1.51,1.51,0,0,0-1.51-1.51h-6.2a1.52,1.52,0,0,0-1.51,1.51h0v2.68a1.51,1.51,0,0,0,1.51,1.51H402a1.5,1.5,0,0,0,1.51-1.51h0V375.1" transform="translate(-2.23 -3.81)" style="fill:none;stroke:#83d4fe;stroke-width:2px"/><path d="M160.47,375.62a2,2,0,0,0-2-2h-5.14a2,2,0,0,0-2,2v5.68a2,2,0,0,0,2,2.05h5.14a2.05,2.05,0,0,0,2.05-2h0v-5.68" transform="translate(-2.23 -3.81)" style="fill:none;stroke:#83d4fe;stroke-width:2px"/><path d="M194.12,379.29l6.8.08a1.3,1.3,0,0,0,1.32-1.28h0l0-2.09a2.34,2.34,0,0,0-2.2-2.46h0l-4.94-.06a2.34,2.34,0,0,0-2.26,2.4l0,2.09a1.3,1.3,0,0,0,1.28,1.32h0" transform="translate(-2.23 -3.81)" style="fill:none;stroke:#83d4fe;stroke-width:2px"/><path d="M281.67,375.47a1.85,1.85,0,0,0-1.84-1.86h0l-5.36,0a1.86,1.86,0,0,0-1.86,1.85h0l0,6a1.84,1.84,0,0,0,1.84,1.85h0l5.36,0a1.85,1.85,0,0,0,1.86-1.84h0l0-6" transform="translate(-2.23 -3.81)" style="fill:none;stroke:#83d4fe;stroke-width:2px"/><path d="M309.38,380.12a1.46,1.46,0,0,0-1.47-1.45l-6.2,0a1.45,1.45,0,0,0-1.45,1.47h0v1.58a1.46,1.46,0,0,0,1.46,1.45l6.2,0a1.48,1.48,0,0,0,1.46-1.47h0v-1.58" transform="translate(-2.23 -3.81)" style="fill:none;stroke:#83d4fe;stroke-width:2px"/><path d="M501.5,203.73h35a.52.52,0,0,1,.52.52h0l0,132.27a.52.52,0,0,1-.14.36l-35.71,38a.54.54,0,0,0-.14.36v27a.51.51,0,0,1-.26.45L270,535.34a.53.53,0,0,1-.52,0l-230-132a.51.51,0,0,1-.26-.45l0-27.05a.54.54,0,0,0-.14-.36L3.37,337.35a.52.52,0,0,1-.14-.36V204.21a.52.52,0,0,1,.52-.52h0l34.45.07a.52.52,0,0,0,.52-.52V138.77a.52.52,0,0,1,.26-.45L269.46,4.88a.53.53,0,0,1,.52,0L500.73,138.35a.52.52,0,0,1,.26.45v64.41a.52.52,0,0,0,.52.52ZM270.07,18.91a.66.66,0,0,0-.64,0L51.12,144.77a.63.63,0,0,0-.32.55v57a.64.64,0,0,0,.64.64H488.11a.64.64,0,0,0,.64-.64h0l0-57a.63.63,0,0,0-.32-.55ZM15.88,215.75a.38.38,0,0,0-.38.38V324.65a.38.38,0,0,0,.38.38H525.1a.38.38,0,0,0,.38-.38h0V216.14a.38.38,0,0,0-.38-.38H15.88Zm4.5,120.83a.33.33,0,0,0-.33.33.32.32,0,0,0,.09.23l18.07,19.07a.33.33,0,0,0,.47,0,.35.35,0,0,0,.1-.24l-.05-18.86a.33.33,0,0,0-.33-.33h0Zm30.38,58.47a.34.34,0,0,0,.17.3l218.64,126a.34.34,0,0,0,.34,0l218.64-126a.34.34,0,0,0,.17-.3l0-57.48a.34.34,0,0,0-.34-.34H51.07a.34.34,0,0,0-.34.34h0Zm450.13-38.3a.34.34,0,0,0,.34.34.35.35,0,0,0,.24-.1l18.09-19.23a.34.34,0,0,0-.25-.58l-17.95.06a.34.34,0,0,0-.34.34Z" transform="translate(-2.23 -3.81)" style="fill:#21b1fe"/><path d="M270.07,18.91,488.41,144.79a.63.63,0,0,1,.32.55l0,57a.64.64,0,0,1-.64.64H51.45a.64.64,0,0,1-.64-.64v-57a.63.63,0,0,1,.32-.55L269.43,18.91A.66.66,0,0,1,270.07,18.91Zm-33.2,146.17a15.8,15.8,0,0,1,.65,2.78c1.31,9.27,10.52,11.91,18.53,11.63a157.24,157.24,0,0,0,20.46-2c6.54-1.1,13.15-.32,19.65-1.66a7.68,7.68,0,0,0,5.58-4.79c3.81-8.53,7.73-16.7,10-26,1.43-6,1.42-13.2-4.88-16a29.72,29.72,0,0,1-10.39-7.31,87.83,87.83,0,0,0-8.72-8.82q-6.66-5.61-11.83-10.25c-5.4-4.83-8.54-11.12-11.88-17.49-3.48-6.64-9.94-6.37-13.93-.68q-3,4.28-1.9,10.71c1,6.11,4,10.48,8,15,1.54,1.73,4,6.5.69,7.82a9.91,9.91,0,0,1-3.46.68q-6.13.12-12.38.69a19.18,19.18,0,0,0-7.38,2.08c-5.24,2.84-6.12,9.9-3.3,14.76.37.62.7,1.25,1,1.88a1.39,1.39,0,0,1,0,1.24c-2.16,4.14-.61,8.2,1.77,12a1.08,1.08,0,0,1,.1.94q-2.72,7.59,3.16,12.12A1.64,1.64,0,0,1,236.87,165.08Z" transform="translate(-2.23 -3.81)" style="fill:#e5f6fe"/><path d="M236.32,164.31q-5.87-4.53-3.16-12.12a1.08,1.08,0,0,0-.1-.94c-2.38-3.78-3.93-7.84-1.77-12a1.39,1.39,0,0,0,0-1.24c-.3-.63-.63-1.26-1-1.88-2.82-4.86-1.94-11.92,3.3-14.76a19.18,19.18,0,0,1,7.38-2.08q6.24-.57,12.38-.69a9.91,9.91,0,0,0,3.46-.68c3.32-1.32.85-6.09-.69-7.82-4-4.49-6.92-8.86-8-15q-1.11-6.44,1.9-10.71c4-5.69,10.45-6,13.93.68,3.34,6.37,6.48,12.66,11.88,17.49q5.17,4.64,11.83,10.25a87.83,87.83,0,0,1,8.72,8.82A29.72,29.72,0,0,0,306.83,129c6.3,2.8,6.31,10,4.88,16-2.24,9.34-6.16,17.51-10,26a7.68,7.68,0,0,1-5.58,4.79c-6.5,1.34-13.11.56-19.65,1.66a157.24,157.24,0,0,1-20.46,2c-8,.28-17.22-2.36-18.53-11.63a15.8,15.8,0,0,0-.65-2.78A1.64,1.64,0,0,0,236.32,164.31ZM262.67,107c6.61,8.84,1.63,18.68-9.25,18.88q-6.15.12-12.81.47A5.44,5.44,0,0,0,235.9,129a1.91,1.91,0,0,0-.27.91c-.13,2.23.77,3.32,2.68,3.25q9.21-.32,19.23-.14a3.37,3.37,0,0,1,3.7,3.5,1.89,1.89,0,0,1-.15.94c-.76,1.8-1.76,2.7-3,2.7q-9,0-17.28.14c-2.53,0-3.61,1.29-3.24,3.8,0,.16,0,.25,0,.26q.55,3.79,4.5,3.69,6.25-.17,12.48,0a3.22,3.22,0,0,1,3.29,2.56,2.78,2.78,0,0,1,.09,1,3.25,3.25,0,0,1-3.65,3.38H240.9q-2.27,0-1.44,2.1l.21.53a3.09,3.09,0,0,0,3.25,2.14c2.57-.09,8.45-1,8.75,3s-3.46,4.39-6.35,3.94a.73.73,0,0,0-.84.61.8.8,0,0,0,.1.5,8.5,8.5,0,0,0,6.66,4.31q8.17.85,20.5-1.06a122.37,122.37,0,0,1,21.59-1.6,1.91,1.91,0,0,0,1.81-1.15c4-9,7.94-17.6,10.07-27.45a6.88,6.88,0,0,0-.47-4.54,1.35,1.35,0,0,0-.73-.7,35.45,35.45,0,0,1-11.88-8.07c-3.1-3.32-5.89-6.8-9.51-9.76q-6.89-5.62-12.27-10.69c-5.8-5.46-9.21-12.6-13.23-19.52a.28.28,0,0,0-.39-.11.39.39,0,0,0-.1.08C251.51,94.31,259,102.05,262.67,107Z" transform="translate(-2.23 -3.81)" style="fill:#21b1fe"/><path d="M253.42,125.89c10.88-.2,15.86-10,9.25-18.88-3.7-5-11.16-12.7-6-19.5a.29.29,0,0,1,.41-.06.24.24,0,0,1,.08.09c4,6.92,7.43,14.06,13.23,19.52q5.38,5.06,12.27,10.69c3.62,3,6.41,6.44,9.51,9.76A35.45,35.45,0,0,0,304,135.58a1.35,1.35,0,0,1,.73.7,6.88,6.88,0,0,1,.47,4.54c-2.13,9.85-6.09,18.48-10.07,27.45a1.91,1.91,0,0,1-1.81,1.15,122.37,122.37,0,0,0-21.59,1.6q-12.33,1.9-20.5,1.06a8.5,8.5,0,0,1-6.66-4.31.73.73,0,0,1,.25-1,.71.71,0,0,1,.49-.1c2.89.45,6.63-.08,6.35-3.94s-6.18-3.07-8.75-3a3.09,3.09,0,0,1-3.25-2.14l-.21-.53q-.83-2.12,1.44-2.1h13.42A3.25,3.25,0,0,0,258,151.6a2.78,2.78,0,0,0-.09-1,3.22,3.22,0,0,0-3.29-2.56q-6.22-.17-12.48,0-3.95.1-4.5-3.69s0-.1,0-.26c-.37-2.51.71-3.77,3.24-3.8q8.24-.11,17.28-.14c1.23,0,2.23-.9,3-2.7a1.89,1.89,0,0,0,.15-.94,3.37,3.37,0,0,0-3.7-3.5q-10-.17-19.23.14c-1.91.07-2.81-1-2.68-3.25a1.91,1.91,0,0,1,.27-.91,5.44,5.44,0,0,1,4.71-2.64Q247.27,126,253.42,125.89Z" transform="translate(-2.23 -3.81)" style="fill:#e5f6fe"/><path d="M15.88,215.75H525.1a.38.38,0,0,1,.38.38h0v108.5a.38.38,0,0,1-.38.38H15.87a.38.38,0,0,1-.38-.38h0V216.13A.38.38,0,0,1,15.88,215.75ZM455.15,263.6a23.23,23.23,0,0,0-23.23-23.23h-4.5a23.23,23.23,0,0,0-23.23,23.23v6.28a23.23,23.23,0,0,0,23.23,23.23h4.5a23.23,23.23,0,0,0,23.23-23.23ZM91.08,251.89l-.16,30.76a.61.61,0,0,1-.65.68l-1.84.1a.59.59,0,0,0-.63.6l-.57,7.23a.78.78,0,0,0,.72.84H88l20.95.14a.89.89,0,0,0,1-1l.07-7q0-1.23-1.2-1a5.46,5.46,0,0,1-2.1-.08.69.69,0,0,1-.53-.67l0-6.68a.58.58,0,0,1,.58-.58h0a37.79,37.79,0,0,0,7-.6,1.13,1.13,0,0,1,1.21.59l3.71,7.23a.57.57,0,0,1-.26.78.58.58,0,0,1-.26.06l-3.25,0a.65.65,0,0,0-.75.73l0,7.24a.87.87,0,0,0,1,1h25.86a1.16,1.16,0,0,0,1.31-1.3l0-6.43c0-1-.49-1.43-1.48-1.26a5.6,5.6,0,0,1-2.24-.06,1.31,1.31,0,0,1-.86-.64l-10.06-17.34a2.26,2.26,0,0,1-.13-2c2.74-6.61,5.56-14,14.66-11.62.15,0,.23,0,.23-.17l-.13-9.58a.2.2,0,0,0-.19-.22,38.17,38.17,0,0,0-12.56.18c-9.93,1.91-11.36,8.59-14.34,16.59q-2,5.34-8.26,5.9c-.56.05-.84-.2-.84-.76V251.72a.51.51,0,0,1,.51-.51h4.49a.74.74,0,0,0,.76-.74h0l.08-8.7a.55.55,0,0,0-.53-.56H88a.66.66,0,0,0-.75.75v8.34a.84.84,0,0,0,.83.84l2.32,0A.61.61,0,0,1,91.08,251.89Zm58,30.45L147,282.2a.7.7,0,0,0-.86.79l-.08,8.22a.82.82,0,0,0,.93,1l36,0a1.67,1.67,0,0,1,1.23.54q3.56,3.92,7.12,8.1a3.63,3.63,0,0,0,2.9,1.35q3.25,0,6.33,0a.92.92,0,0,0,.94-.89.85.85,0,0,0-.07-.39q-1.44-3.29-2.68-6.69c-1.29-3.59-1-7.53-1.26-11.31a.69.69,0,0,0-.78-.73h-1.84a.61.61,0,0,1-.69-.67,262.08,262.08,0,0,1,.32-29.22,1.24,1.24,0,0,1,.45-.88l1.55-1.28a1.72,1.72,0,0,0,.62-1.19l.61-6.78a.79.79,0,0,0-.72-.86H197l-21.88-.16a.53.53,0,0,0-.61.59,54,54,0,0,0,.54,7.58,1.79,1.79,0,0,0,.63,1.16,4.37,4.37,0,0,0,1.19.71A1.87,1.87,0,0,1,178,252.7c1.38,9.27,1,19.28.9,28.85a.67.67,0,0,1-.66.66l-12.13.06a.8.8,0,0,1-.9-.92l.48-29.76a.54.54,0,0,1,.55-.53h0c1.13.07,2.46-.21,2.72-1.52a38.9,38.9,0,0,0,.79-7.43.71.71,0,0,0-.8-.81l-22-.1a.87.87,0,0,0-1,1l.1,8a.94.94,0,0,0,1.07,1l2.53,0q.51,0,.51.51l0,29.6a1,1,0,0,1-1,1Zm127.1-10.06a53.17,53.17,0,0,1,11.89-.07,1.16,1.16,0,0,1,1,1.26l-.71,8.06a.73.73,0,0,1-.52.68l-1.51.57a1.24,1.24,0,0,0-.78,1l-.66,7.48a.51.51,0,0,0,.55.63q11.38.49,22.11.05a.57.57,0,0,0,.61-.68l-.44-7.16a1.63,1.63,0,0,0-.64-1.22,4.12,4.12,0,0,0-1.48-.74.93.93,0,0,1-.73-.88,186.24,186.24,0,0,1-.08-29.12,1.31,1.31,0,0,1,.38-.83,3.3,3.3,0,0,1,1.1-.71,1.62,1.62,0,0,0,1-1.11,34.22,34.22,0,0,0,1-7.32.72.72,0,0,0-.81-.85l-21.8-.14a.78.78,0,0,0-.78.78v.06l.67,7.85a1.06,1.06,0,0,0,.84.95,2.24,2.24,0,0,1,2,2,52.26,52.26,0,0,1,.54,7.79,1.54,1.54,0,0,1-1.36,1.53,49.82,49.82,0,0,1-11.38,0,.62.62,0,0,1-.55-.64l.33-9.11a.83.83,0,0,1,.55-.79l2-.82a1.38,1.38,0,0,0,.85-1.17l.67-7.77a.44.44,0,0,0-.4-.48h0l-22.26-.11a.64.64,0,0,0-.73.73l.13,8.11a1,1,0,0,0,1.11,1.11l1.89,0a.54.54,0,0,1,.6.6q.35,15-.13,29.79a.8.8,0,0,1-.5.75,2.45,2.45,0,0,1-1.4.17c-.77-.13-1.18.19-1.22,1l-.37,7.63a.84.84,0,0,0,.94,1l21.5,0a.63.63,0,0,0,.72-.76l-.41-8a.89.89,0,0,0-.78-.85l-1.92-.24a1.11,1.11,0,0,1-1-1.08l-.19-8.2A.64.64,0,0,1,276.2,272.28Zm55.44-21,10.33,0a.69.69,0,0,1,.77.74l.15,3.8a.93.93,0,0,0,.88.89l10.24.49a1.06,1.06,0,0,0,1.12-1v-.09q-.24-7.09.14-14.24a.56.56,0,0,0-.53-.6h-42a1,1,0,0,0-1.14,1.2l.39,7.17a1.51,1.51,0,0,0,1.59,1.42h0a2.83,2.83,0,0,1,1.51.26.85.85,0,0,1,.53.78,291.72,291.72,0,0,1,.19,29.71.67.67,0,0,1-.7.72l-1.56.11a1.28,1.28,0,0,0-1.32,1.3l-.57,7.5a.59.59,0,0,0,.66.71l42.19.08a.6.6,0,0,0,.6-.6h0l-.06-14.44a.94.94,0,0,0-.95-.93h0l-10.89.34a.56.56,0,0,0-.61.64l0,3.88a.88.88,0,0,1-1,1l-9.52.18a.84.84,0,0,1-.86-.81v0l-.06-9.6a.53.53,0,0,1,.62-.6,85.68,85.68,0,0,0,12-.33,1.22,1.22,0,0,0,1.11-1.23l-.08-6.91a1.27,1.27,0,0,0-1.43-1.43l-11.78-.11a.28.28,0,0,1-.32-.31l-.09-9.33A.29.29,0,0,1,331.64,251.25Zm45.87,10.31,0-9.62a.66.66,0,0,1,.74-.74l9.71,0a.65.65,0,0,1,.73.75l-.12,4.52a.66.66,0,0,0,.64.67h0l11,.07a.76.76,0,0,0,.77-.76h0l.05-14.84a.41.41,0,0,0-.41-.41h0l-41.37,0a.56.56,0,0,0-.56.56v0q.27,3.57.79,7.61a1.78,1.78,0,0,0,1.5,1.67,1.3,1.3,0,0,1,1.08,1.14,86.73,86.73,0,0,1,.61,9.75q0,8.85-.13,20.63a.7.7,0,0,1-.76.78l-1.47,0a1.15,1.15,0,0,0-1.24,1.2l-.37,6.56a.84.84,0,0,0,.94,1q11.77.07,24.78,0c11-.08,18.85-5.45,17.42-17.57-1-8.39-9.82-12.21-17.44-12.37q-3.17-.06-6.18,0A.62.62,0,0,1,377.51,261.56Zm-324,1.09a.63.63,0,0,0,.63.55h8.07a.63.63,0,0,0,.63-.55l2.39-19.75a.62.62,0,0,0-.55-.69h-.07l-12.91-.05a.63.63,0,0,0-.63.63v.08Zm18,0a.63.63,0,0,0,.62.55l8.12.05a.63.63,0,0,0,.63-.56L83.31,243a.62.62,0,0,0-.54-.7h-.08l-12.87-.09a.63.63,0,0,0-.63.63v.07Zm169,.11a.51.51,0,0,0,.5.45l8.31,0a.5.5,0,0,0,.5-.45l2.43-20a.52.52,0,0,0-.44-.57h-.06l-13.18-.06a.51.51,0,0,0-.51.51v.06Zm220.79-.07a.62.62,0,0,0,.61.54l8.06,0a.61.61,0,0,0,.62-.55l2.42-19.78a.6.6,0,0,0-.54-.68h-.07l-13-.06a.62.62,0,0,0-.62.62v.08Zm18-.09a.73.73,0,0,0,.72.63h7.89a.72.72,0,0,0,.72-.63L491.2,243a.72.72,0,0,0-.62-.8h-.09l-12.77,0a.72.72,0,0,0-.72.72V243Zm-256.87.18a.5.5,0,0,0,.49.44l8.27,0a.5.5,0,0,0,.5-.44l2.5-20a.49.49,0,0,0-.43-.55h-.06l-13.24-.05a.5.5,0,0,0-.5.5v.06Z" transform="translate(-2.23 -3.81)" style="fill:#e5f6fe"/><path d="M455.15,269.88a23.23,23.23,0,0,1-23.23,23.23h-4.5a23.23,23.23,0,0,1-23.23-23.23V263.6a23.23,23.23,0,0,1,23.23-23.23h4.5a23.23,23.23,0,0,1,23.23,23.23Zm-25.42,12.49c4.25,0,7.63-7.1,7.54-15.77S433.66,251,429.4,251h0c-4.26,0-7.64,7.11-7.55,15.77s3.62,15.66,7.88,15.61Z" transform="translate(-2.23 -3.81)" style="fill:#21b1fe"/><path d="M90.39,251.19l-2.32,0a.84.84,0,0,1-.83-.84V242a.66.66,0,0,1,.75-.75h23.55a.55.55,0,0,1,.54.55h0l-.08,8.7a.74.74,0,0,1-.76.74h-4.49a.51.51,0,0,0-.51.51v11.79c0,.56.28.81.84.76q6.27-.56,8.26-5.9c3-8,4.41-14.68,14.34-16.59a38.17,38.17,0,0,1,12.56-.18.2.2,0,0,1,.19.22l.13,9.58c0,.15-.08.21-.23.17-9.1-2.37-11.92,5-14.66,11.62a2.26,2.26,0,0,0,.13,2l10.06,17.34a1.31,1.31,0,0,0,.86.64,5.6,5.6,0,0,0,2.24.06c1-.17,1.49.25,1.48,1.26l0,6.43a1.16,1.16,0,0,1-1.31,1.3H115.2a.87.87,0,0,1-1-1l0-7.24a.65.65,0,0,1,.75-.73l3.25,0a.58.58,0,0,0,.52-.84l-3.71-7.23a1.13,1.13,0,0,0-1.21-.59,37.79,37.79,0,0,1-7,.6.58.58,0,0,0-.58.58h0l0,6.68a.69.69,0,0,0,.53.67,5.46,5.46,0,0,0,2.1.08q1.22-.18,1.2,1l-.07,7a.89.89,0,0,1-1,1L88,292.1a.78.78,0,0,1-.78-.78v-.06L87.8,284a.59.59,0,0,1,.63-.6l1.84-.1a.61.61,0,0,0,.65-.68l.16-30.76A.61.61,0,0,0,90.39,251.19Z" transform="translate(-2.23 -3.81)" style="fill:#21b1fe"/><path d="M149.1,282.34a1,1,0,0,0,1.1-1v-.07l0-29.6q0-.53-.51-.51l-2.53,0a.94.94,0,0,1-1.07-1l-.1-8a.87.87,0,0,1,1-1l22,.1a.71.71,0,0,1,.8.81,38.9,38.9,0,0,1-.79,7.43c-.26,1.31-1.59,1.59-2.72,1.52a.55.55,0,0,0-.58.5v0l-.48,29.76a.8.8,0,0,0,.9.92l12.13-.06a.67.67,0,0,0,.66-.66c.09-9.57.48-19.58-.9-28.85a1.87,1.87,0,0,0-1.16-1.46,4.37,4.37,0,0,1-1.19-.71,1.79,1.79,0,0,1-.63-1.16,54,54,0,0,1-.54-7.58.53.53,0,0,1,.61-.59l21.88.16a.79.79,0,0,1,.78.8v.06l-.61,6.78a1.72,1.72,0,0,1-.62,1.19L195,251.47a1.24,1.24,0,0,0-.45.88,262.08,262.08,0,0,0-.32,29.22.61.61,0,0,0,.69.67h1.84a.69.69,0,0,1,.78.73c.27,3.78,0,7.72,1.26,11.31q1.24,3.41,2.68,6.69a.93.93,0,0,1-.48,1.21,1.07,1.07,0,0,1-.39.07q-3.08-.08-6.33,0a3.63,3.63,0,0,1-2.9-1.35q-3.56-4.19-7.12-8.1a1.67,1.67,0,0,0-1.23-.54l-36,0a.82.82,0,0,1-.93-1l.08-8.22a.7.7,0,0,1,.86-.79Z" transform="translate(-2.23 -3.81)" style="fill:#21b1fe"/><path d="M276.2,272.28a.64.64,0,0,0-.64.73l.19,8.2a1.11,1.11,0,0,0,1,1.08l1.92.24a.89.89,0,0,1,.78.85l.41,8a.63.63,0,0,1-.72.76l-21.5,0a.84.84,0,0,1-.94-1l.37-7.63c0-.79.45-1.11,1.22-1a2.45,2.45,0,0,0,1.4-.17.8.8,0,0,0,.5-.75q.48-14.82.13-29.79a.54.54,0,0,0-.6-.6l-1.89,0a1,1,0,0,1-1.11-1.11l-.13-8.11a.64.64,0,0,1,.73-.73l22.26.11a.44.44,0,0,1,.44.44v0l-.67,7.77a1.38,1.38,0,0,1-.85,1.17l-2,.82a.83.83,0,0,0-.55.79l-.33,9.11a.62.62,0,0,0,.55.64,49.82,49.82,0,0,0,11.38,0,1.54,1.54,0,0,0,1.36-1.53,52.26,52.26,0,0,0-.54-7.79,2.24,2.24,0,0,0-2-2,1.06,1.06,0,0,1-.84-.95l-.67-7.85a.79.79,0,0,1,.72-.84h.06l21.8.14a.72.72,0,0,1,.81.85,34.22,34.22,0,0,1-1,7.32,1.62,1.62,0,0,1-1,1.11,3.3,3.3,0,0,0-1.1.71,1.31,1.31,0,0,0-.38.83,186.24,186.24,0,0,0,.08,29.12.93.93,0,0,0,.73.88,4.12,4.12,0,0,1,1.48.74,1.63,1.63,0,0,1,.64,1.22l.44,7.16a.57.57,0,0,1-.61.68q-10.73.45-22.11-.05a.51.51,0,0,1-.55-.63l.66-7.48a1.24,1.24,0,0,1,.78-1l1.51-.57a.73.73,0,0,0,.52-.68l.71-8.06a1.16,1.16,0,0,0-1-1.26A53.17,53.17,0,0,0,276.2,272.28Z" transform="translate(-2.23 -3.81)" style="fill:#21b1fe"/><path d="M331.64,251.25a.29.29,0,0,0-.32.32l.09,9.33a.28.28,0,0,0,.32.31l11.78.11a1.27,1.27,0,0,1,1.43,1.43l.08,6.91a1.22,1.22,0,0,1-1.11,1.23,85.68,85.68,0,0,1-12,.33.53.53,0,0,0-.62.6l.06,9.6a.84.84,0,0,0,.84.83h0l9.52-.18a.88.88,0,0,0,1-1l0-3.88a.56.56,0,0,1,.61-.64l10.89-.34a.94.94,0,0,1,1,.91v0l.06,14.44a.6.6,0,0,1-.6.6h0l-42.19-.08a.59.59,0,0,1-.66-.71l.57-7.5a1.28,1.28,0,0,1,1.32-1.3l1.56-.11a.67.67,0,0,0,.7-.72,291.72,291.72,0,0,0-.19-29.71.85.85,0,0,0-.53-.78,2.83,2.83,0,0,0-1.51-.26,1.52,1.52,0,0,1-1.62-1.39v0l-.39-7.17a1,1,0,0,1,1.14-1.2H354.7a.56.56,0,0,1,.57.56v0q-.37,7.14-.14,14.24a1,1,0,0,1-1,1.09H354l-10.24-.49a.93.93,0,0,1-.88-.89l-.15-3.8a.69.69,0,0,0-.77-.74Z" transform="translate(-2.23 -3.81)" style="fill:#21b1fe"/><path d="M378.24,262.27q3-.11,6.18,0c7.62.16,16.45,4,17.44,12.37,1.43,12.12-6.42,17.49-17.42,17.57q-13,.09-24.78,0a.84.84,0,0,1-.94-1l.37-6.56a1.15,1.15,0,0,1,1.24-1.2l1.47,0a.7.7,0,0,0,.76-.78q.13-11.78.13-20.63a86.73,86.73,0,0,0-.61-9.75,1.3,1.3,0,0,0-1.08-1.14,1.78,1.78,0,0,1-1.5-1.67q-.53-4-.79-7.61a.56.56,0,0,1,.52-.6h0l41.37,0a.41.41,0,0,1,.41.41h0L401,256.48a.76.76,0,0,1-.77.76h0l-11-.07a.66.66,0,0,1-.66-.65v0l.12-4.52a.65.65,0,0,0-.73-.75l-9.71,0a.66.66,0,0,0-.74.74l0,9.62A.62.62,0,0,0,378.24,262.27Zm-.76,8.58.06,11.74a.71.71,0,0,0,.7.69h3.37a5.93,5.93,0,0,0,6.12-5.72h0v-1.76a5.93,5.93,0,0,0-6.18-5.65h-3.37a.7.7,0,0,0-.7.7Z" transform="translate(-2.23 -3.81)" style="fill:#21b1fe"/><path d="M53.55,262.65l-2.44-19.78a.63.63,0,0,1,.55-.7h.08l12.91.05a.64.64,0,0,1,.63.64s0,0,0,.06l-2.39,19.75a.63.63,0,0,1-.63.55H54.18A.63.63,0,0,1,53.55,262.65Z" transform="translate(-2.23 -3.81)" style="fill:#21b1fe"/><path d="M71.6,262.62l-2.41-19.77a.62.62,0,0,1,.56-.69h.07l12.87.09a.64.64,0,0,1,.63.64s0,.05,0,.07L81,262.66a.63.63,0,0,1-.63.56l-8.12-.05A.63.63,0,0,1,71.6,262.62Z" transform="translate(-2.23 -3.81)" style="fill:#21b1fe"/><path d="M240.63,262.73l-2.45-20a.51.51,0,0,1,.45-.56h.06l13.18.06a.53.53,0,0,1,.51.52.09.09,0,0,0,0,.05l-2.43,20a.5.5,0,0,1-.5.45l-8.31,0A.51.51,0,0,1,240.63,262.73Z" transform="translate(-2.23 -3.81)" style="fill:#21b1fe"/><path d="M461.42,262.66l-2.52-19.81a.62.62,0,0,1,.54-.69h.08l13,.06a.63.63,0,0,1,.62.63s0,0,0,.06l-2.42,19.78a.61.61,0,0,1-.62.55l-8.06,0A.62.62,0,0,1,461.42,262.66Z" transform="translate(-2.23 -3.81)" style="fill:#21b1fe"/><path d="M479.44,262.57,477,243a.72.72,0,0,1,.63-.8h.09l12.77,0a.73.73,0,0,1,.72.73.25.25,0,0,1,0,.08l-2.43,19.56a.72.72,0,0,1-.72.63h-7.89A.73.73,0,0,1,479.44,262.57Z" transform="translate(-2.23 -3.81)" style="fill:#21b1fe"/><path d="M222.57,262.75l-2.47-20a.5.5,0,0,1,.44-.55h.06l13.24.05a.5.5,0,0,1,.5.51.09.09,0,0,0,0,.05l-2.5,20a.5.5,0,0,1-.5.44l-8.27,0A.5.5,0,0,1,222.57,262.75Z" transform="translate(-2.23 -3.81)" style="fill:#21b1fe"/><ellipse cx="429.56" cy="266.68" rx="7.71" ry="15.69" transform="matrix(1, -0.01, 0.01, 1, -5, 0.7)" style="fill:#e5f6fe"/><path d="M377.48,270.85a.7.7,0,0,1,.69-.71h3.38a5.93,5.93,0,0,1,6.18,5.65v1.76a5.93,5.93,0,0,1-6.11,5.73h-3.38a.71.71,0,0,1-.7-.69Z" transform="translate(-2.23 -3.81)" style="fill:#e5f6fe"/><path d="M20.38,336.58l18,.21a.33.33,0,0,1,.33.33h0L38.78,356a.33.33,0,0,1-.33.33.28.28,0,0,1-.24-.1L20.14,337.14a.33.33,0,0,1,0-.47A.32.32,0,0,1,20.38,336.58Z" transform="translate(-2.23 -3.81)" style="fill:#e5f6fe"/><path d="M50.76,395.05l0-57.49a.34.34,0,0,1,.34-.34H488.41a.34.34,0,0,1,.34.34h0l0,57.48a.34.34,0,0,1-.17.3l-218.64,126a.34.34,0,0,1-.34,0l-218.64-126A.34.34,0,0,1,50.76,395.05ZM322.1,371a6.72,6.72,0,0,1-1.83-1.71.59.59,0,0,0-.71-.23.53.53,0,0,0-.3.23.81.81,0,0,0-.05.77c1.69,3.78,5.46,3.3,7-.24a.36.36,0,0,0-.27-.56l-.37-.09a1,1,0,0,0-1.16.52,3.71,3.71,0,0,1-1,1.24A1.08,1.08,0,0,1,322.1,371ZM138.69,377.4l.21-4.48a.88.88,0,0,0-.72-.9l-.27,0a.51.51,0,0,0-.58.43.17.17,0,0,0,0,.07l.05,11.5a.74.74,0,0,0,.72.74h.4c.35,0,.51-.16.49-.5l-.19-4a.62.62,0,0,1,.57-.71,3.9,3.9,0,0,1,3.9,1.12,32.86,32.86,0,0,0,4,3.77,1.56,1.56,0,0,0,1.25.31l.6-.11c.39-.07.42-.22.11-.46a42.66,42.66,0,0,1-5.64-5.27.55.55,0,0,1,0-.86l5.46-5.41c.26-.26.21-.41-.16-.44l-.74-.06a1.28,1.28,0,0,0-1.09.41c-1.5,1.57-3,3.18-4.45,4.85a3.55,3.55,0,0,1-3.3.76A.64.64,0,0,1,138.69,377.4Zm26.7,0,.1-4.64a.66.66,0,0,0-.61-.67l-.35,0a.78.78,0,0,0-.83.71v.13a53.76,53.76,0,0,1,0,10.84.9.9,0,0,0,.8,1h.42a.47.47,0,0,0,.49-.47h0l-.05-4c0-.55.26-.79.81-.73a36.85,36.85,0,0,0,7.5,0,.76.76,0,0,1,.83.66v.12l-.2,3.66a.65.65,0,0,0,.61.69h.31c.49,0,.72-.24.68-.73a66.73,66.73,0,0,1,0-10.86.78.78,0,0,0-.59-.88l-.3-.1c-.65-.2-.91,0-.79.69a12.57,12.57,0,0,1,0,4.89.69.69,0,0,1-.74.6h-7.35A.69.69,0,0,1,165.39,377.42Zm68.21,4-.15-.41a1.16,1.16,0,0,1,0-.45q.36-3.76.37-7.62a.68.68,0,0,0-.77-.77l-23.95,0q-3.54,0-3.49,3.54l.13,8.29a.54.54,0,0,0,.5.58l.44.07c.38.06.57-.1.56-.49l-.12-8.82a1.6,1.6,0,0,1,1.58-1.61h0l6.3,0a.91.91,0,0,1,1,1l0,9.15a.82.82,0,0,0,.61.83l.41.13a.57.57,0,0,0,.75-.54l.05-10.06a.55.55,0,0,1,.64-.62l4.51.1a.48.48,0,0,1,.52.53l.2,9.86c0,.68.35.92,1,.72l.26-.08a.56.56,0,0,0,.4-.49,61.3,61.3,0,0,0,.07-9.57.76.76,0,0,1,.81-.92l5-.28a.72.72,0,0,1,.75.68v0l-.1,9.68a1,1,0,0,0,1.72.71,76.22,76.22,0,0,0,7.72-9.24.7.7,0,0,1,.77-.25c.41.13.6.34.59.62-.11,2.91-.2,5.66-.25,8.26a.61.61,0,0,0,.55.68,1.31,1.31,0,0,0,1.08-.26.62.62,0,0,0,.21-.87,4.06,4.06,0,0,1-.4-2,42.1,42.1,0,0,0,.29-7.48q-.24-3.82-2.7-.88l-7,8.32a.51.51,0,0,1-.72.07A.59.59,0,0,1,233.6,381.39Zm24.64,2.38a44,44,0,0,1-.09-10.75.71.71,0,0,0-.62-.79h0l-.46,0c-.43,0-.63.16-.62.59l.12,4.13q0,1.43-1.38,1.35a56.16,56.16,0,0,0-6.34,0c-.86,0-1.27-.36-1.24-1.22l.18-4.26a.59.59,0,0,0-.55-.67,2.54,2.54,0,0,0-1,0,.56.56,0,0,0-.47.67A65.93,65.93,0,0,1,246,384a.7.7,0,0,0,.6.74l.3.05c.6.09.88-.17.83-.77l-.24-3.31c-.05-.73.28-1.1,1-1.09l7.13.07a.85.85,0,0,1,1,1l-.19,3.36a.49.49,0,0,0,.47.52.29.29,0,0,0,.13,0l.75-.15A.5.5,0,0,0,258.24,383.77ZM285,372.71l0,11.38a.57.57,0,0,0,.57.57h0l8.35,0A3.15,3.15,0,0,0,297,381.4h0l0-6.08a3.15,3.15,0,0,0-3.09-3.21l-8.35,0a.58.58,0,0,0-.57.57Zm29.76-.1a.54.54,0,0,0-.54-.54h-.6a.55.55,0,0,0-.54.55l.06,11.32a.54.54,0,0,0,.54.53h.6a.54.54,0,0,0,.54-.54ZM351,383.79a2,2,0,0,1-1.05-1.83q0-4.38-.26-9.31a.6.6,0,0,0-.5-.55l-.35-.05c-.56-.09-.84.15-.83.72l.18,10.2a.14.14,0,0,1-.14.15,58.84,58.84,0,0,1-8.91,0c-.09,0-.14-.06-.13-.15l.24-10.11a.79.79,0,0,0-.83-.91l-.43,0a.58.58,0,0,0-.62.55v.05l.05,11.25a.85.85,0,0,0,.85.84l10.48.07a1.09,1.09,0,0,1,.93.46l.72.9q.62.8,1.05-.12a2.08,2.08,0,0,0,.19-.75.59.59,0,0,1,.7-.64q6.85.27,15.34-.17c.56,0,.79-.32.68-.87a9.06,9.06,0,0,1-.09-2.93.86.86,0,0,1,.93-.81l7.11-.06a.73.73,0,0,1,.84.87l-.15,3.17a.86.86,0,0,0,.72.88l.41.06c.41.07.61-.11.62-.52l.2-9.59a.85.85,0,0,1,1-.94l3.75.09a1,1,0,0,1,.93,1l-.09,9.3a.65.65,0,0,0,.58.66l.73.08c.41.05.62-.14.63-.55l.23-9.67a.64.64,0,0,1,.68-.71l4.79-.3c.47,0,.7.2.69.67l-.19,9.87q0,.92.87.72l.33-.08a.38.38,0,0,0,.31-.36l.13-3a.66.66,0,0,1,.75-.7l6.31,0q3.78,0,3.81-3.76v-1.21c0-2.35-1.15-3.53-3.5-3.53H377.55a.49.49,0,0,0-.55.54l-.06,4.17a1.08,1.08,0,0,1-1.19,1.2l-5.82.15a1.51,1.51,0,0,1-1.76-1.75l.07-3.44a.67.67,0,0,0-.75-.77l-14.55-.06a.57.57,0,0,0-.57.57v0a70.78,70.78,0,0,1,.1,10.62c-.05.84-.44,1-1.15.59Zm-189.14-8.48a3.11,3.11,0,0,0-3.12-3.1h-5.84a3.09,3.09,0,0,0-3.1,3.11v6.12a3.11,3.11,0,0,0,3.11,3.11h5.84a3.12,3.12,0,0,0,3.11-3.12Zm18.81,7.78a1.43,1.43,0,0,1-1.25-1.42v-6.34a1.73,1.73,0,0,1,1.72-1.73l5.35,0a1.1,1.1,0,0,1,.89.39l1.1,1.22c.73.8,1.08.66,1.06-.42a2.52,2.52,0,0,0-1-2,2.59,2.59,0,0,0-1.74-.61q-3,0-6,.05a2.82,2.82,0,0,0-2.81,2.59,39.12,39.12,0,0,0,.13,7.66,2.2,2.2,0,0,0,1.92,1.94c2.14.26,9,1.18,9.57-2,.23-1.35-.14-1.53-1.09-.55C186.56,383.82,183,383.39,180.66,383.09Zm21.58-1.55-.13,2.28a.57.57,0,0,0,.56.68,2,2,0,0,0,.64,0c.48-.08.59-.33.32-.74a3.11,3.11,0,0,1-.37-1.61c.18-2.33.27-4.66.26-7a3,3,0,0,0-3.06-3h0l-6,.07a3.09,3.09,0,0,0-3,3.08l0,8.51a.89.89,0,0,0,.71.88l.42.1a.53.53,0,0,0,.63-.41.38.38,0,0,0,0-.15l-.2-2.39a1.22,1.22,0,0,1,1.11-1.3h7.25A.83.83,0,0,1,202.24,381.54Zm59.29-7.3a.71.71,0,0,1,.71-.71h.06a38.7,38.7,0,0,0,8.58-.21c.19,0,.25-.12.17-.3l-.1-.24a.9.9,0,0,0-.92-.59l-10,.05a.38.38,0,0,0-.38.38.59.59,0,0,0,0,.14q.9,2.48.27,11a.75.75,0,0,0,.62.79l.44.07a.44.44,0,0,0,.51-.36v-.08Zm21.69,1a3,3,0,0,0-3-3h-6.06a3,3,0,0,0-3,3h0v6.34a3,3,0,0,0,3,3h6.06a3,3,0,0,0,3-3h0Zm17.13,1,.12-3.24a.68.68,0,0,0-.75-.8h-.4c-.57,0-.83.26-.78.83a56,56,0,0,1,0,10.11,1.39,1.39,0,0,0,1.26,1.5h.11l7.33.07q3.66,0,3.76-3.63v-.42q-.06-3.54-3.6-3.53h-6.17a.86.86,0,0,1-.87-.85Zm15.59-2.51a3.58,3.58,0,0,1,.58,2.66,19.47,19.47,0,0,0,0,6.19,1.43,1.43,0,0,1-.15.95l-.12.23a.57.57,0,0,0,.23.76l.14.05a2.42,2.42,0,0,0,2.4-.83q3.45-3.77,6.6-7.58a2.3,2.3,0,0,1,.94-.69c.47-.19.69,0,.68.46l-.16,7.85a.8.8,0,0,0,.79.91l.28,0a.48.48,0,0,0,.6-.53l.08-10.34a1,1,0,0,0-1.75-.75,88.52,88.52,0,0,0-7.85,8.78,1.11,1.11,0,0,1-.7.43.52.52,0,0,1-.6-.41.49.49,0,0,1,0-.12l.27-7.73a1,1,0,0,0-1-1h-.08l-.89.05C315.77,373.09,315.66,373.3,315.94,373.71ZM273,491.57a.3.3,0,0,0,.34,0l67.2-41.27a.32.32,0,0,0,.1-.44.34.34,0,0,0-.26-.15H205.75a.32.32,0,0,0-.32.32.33.33,0,0,0,.15.27Z" transform="translate(-2.23 -3.81)" style="fill:#e5f6fe"/><path d="M500.89,356.75l.13-19.17a.34.34,0,0,1,.34-.34l17.95-.06a.34.34,0,0,1,.35.33.32.32,0,0,1-.1.25L501.47,357a.34.34,0,0,1-.48,0A.35.35,0,0,1,500.89,356.75Z" transform="translate(-2.23 -3.81)" style="fill:#e5f6fe"/><path d="M323.34,371a3.71,3.71,0,0,0,1-1.24,1,1,0,0,1,1.16-.52l.37.09a.36.36,0,0,1,.27.56c-1.49,3.54-5.26,4-7,.24a.81.81,0,0,1,.05-.77.53.53,0,0,1,.3-.23.59.59,0,0,1,.71.23A6.72,6.72,0,0,0,322.1,371,1.08,1.08,0,0,0,323.34,371Z" transform="translate(-2.23 -3.81)" style="fill:#21b1fe"/><path d="M139.29,378.14a3.55,3.55,0,0,0,3.3-.76c1.47-1.67,2.95-3.28,4.45-4.85a1.28,1.28,0,0,1,1.09-.41l.74.06c.37,0,.42.18.16.44L143.57,378a.55.55,0,0,0,0,.86,42.66,42.66,0,0,0,5.64,5.27c.31.24.28.39-.11.46l-.6.11a1.56,1.56,0,0,1-1.25-.31,32.86,32.86,0,0,1-4-3.77,3.9,3.9,0,0,0-3.9-1.12.62.62,0,0,0-.57.71l.19,4c0,.34-.14.51-.49.5h-.4a.74.74,0,0,1-.72-.74l-.05-11.5a.5.5,0,0,1,.52-.5h.07l.27,0a.88.88,0,0,1,.72.9l-.21,4.48A.64.64,0,0,0,139.29,378.14Z" transform="translate(-2.23 -3.81)" style="fill:#21b1fe"/><path d="M166.17,378.22h7.35a.69.69,0,0,0,.74-.6,12.57,12.57,0,0,0,0-4.89c-.12-.66.14-.89.79-.69l.3.1a.78.78,0,0,1,.59.88,66.73,66.73,0,0,0,0,10.86c0,.49-.19.73-.68.73H175a.65.65,0,0,1-.66-.64v-.05l.2-3.66a.73.73,0,0,0-.7-.78h-.13a36.85,36.85,0,0,1-7.5,0c-.55-.06-.82.18-.81.73l.05,4a.47.47,0,0,1-.48.48h-.35a.88.88,0,0,1-.88-.89v-.09a53.76,53.76,0,0,0,0-10.84.77.77,0,0,1,.7-.84h.13l.35,0a.66.66,0,0,1,.61.67l-.1,4.64A.69.69,0,0,0,166.17,378.22Z" transform="translate(-2.23 -3.81)" style="fill:#21b1fe"/><path d="M233.6,381.39a.53.53,0,0,0,.68.28.7.7,0,0,0,.19-.15l7-8.32q2.46-2.94,2.7.88a42.1,42.1,0,0,1-.29,7.48,4.06,4.06,0,0,0,.4,2,.62.62,0,0,1-.21.87,1.31,1.31,0,0,1-1.08.26.61.61,0,0,1-.55-.68c.05-2.6.14-5.35.25-8.26,0-.28-.18-.49-.59-.62a.7.7,0,0,0-.77.25,76.22,76.22,0,0,1-7.72,9.24,1,1,0,0,1-1.41,0,1,1,0,0,1-.31-.74l.1-9.68a.71.71,0,0,0-.71-.72h0l-5,.28a.76.76,0,0,0-.81.92,61.3,61.3,0,0,1-.07,9.57.56.56,0,0,1-.4.49l-.26.08c-.65.2-1,0-1-.72l-.2-9.86a.48.48,0,0,0-.52-.53l-4.51-.1a.55.55,0,0,0-.64.62l-.05,10.06a.57.57,0,0,1-.75.54l-.41-.13a.82.82,0,0,1-.61-.83l0-9.15a.91.91,0,0,0-1-1l-6.3,0a1.6,1.6,0,0,0-1.6,1.59v0l.12,8.82c0,.39-.18.55-.56.49l-.44-.07a.54.54,0,0,1-.5-.58l-.13-8.29q0-3.54,3.49-3.54l23.95,0a.68.68,0,0,1,.77.77q0,3.85-.37,7.62a1.16,1.16,0,0,0,0,.45Z" transform="translate(-2.23 -3.81)" style="fill:#21b1fe"/><path d="M258.24,383.77a.5.5,0,0,1-.45.63l-.75.15a.5.5,0,0,1-.59-.38.53.53,0,0,1,0-.13l.19-3.36a.85.85,0,0,0-1-1l-7.13-.07c-.73,0-1.06.36-1,1.09l.24,3.31c0,.6-.23.86-.83.77l-.3-.05a.7.7,0,0,1-.6-.74,65.93,65.93,0,0,0-.28-11.18.56.56,0,0,1,.47-.67,2.54,2.54,0,0,1,1,0,.59.59,0,0,1,.55.67l-.18,4.26c0,.86.38,1.27,1.24,1.22a56.16,56.16,0,0,1,6.34,0q1.43.08,1.38-1.35l-.12-4.13c0-.43.19-.63.62-.59l.46,0a.71.71,0,0,1,.64.77v0A44,44,0,0,0,258.24,383.77Z" transform="translate(-2.23 -3.81)" style="fill:#21b1fe"/><path d="M285,372.71a.58.58,0,0,1,.57-.57h0l8.35,0a3.15,3.15,0,0,1,3.09,3.21l0,6.08a3.15,3.15,0,0,1-3.07,3.23h0l-8.35,0a.57.57,0,0,1-.57-.57h0Zm9.17,5.25a1.28,1.28,0,0,0,1.24-1.25l.05-1.61a1.29,1.29,0,0,0-1.25-1.33h0l-6.43-.21a1.29,1.29,0,0,0-1.32,1.26V375l.17,2.06a1.28,1.28,0,0,0,1.34,1.17Zm1.25,2.88a1.17,1.17,0,0,0-1.15-1.17h0l-6.58-.06a1.16,1.16,0,0,0-1.17,1.15V382a1.15,1.15,0,0,0,1.15,1.17h0l6.58.06a1.16,1.16,0,0,0,1.17-1.15Z" transform="translate(-2.23 -3.81)" style="fill:#21b1fe"/><rect x="313.06" y="372.07" width="1.68" height="12.4" rx="0.54" transform="translate(-4.21 -2.16) rotate(-0.3)" style="fill:#21b1fe"/><path d="M351,383.79l.33.2c.71.45,1.1.25,1.15-.59a70.78,70.78,0,0,0-.1-10.62.58.58,0,0,1,.52-.62h.05l14.55.06a.67.67,0,0,1,.75.77l-.07,3.44a1.51,1.51,0,0,0,1.76,1.75l5.82-.15a1.08,1.08,0,0,0,1.19-1.2l.06-4.17a.49.49,0,0,1,.55-.54h24.11c2.35,0,3.51,1.18,3.5,3.53v1.21q0,3.78-3.81,3.76l-6.31,0a.66.66,0,0,0-.75.7l-.13,3a.38.38,0,0,1-.31.36l-.33.08q-.88.19-.87-.72l.19-9.87c0-.47-.22-.7-.69-.67l-4.79.3a.64.64,0,0,0-.68.71l-.23,9.67c0,.41-.22.6-.63.55l-.73-.08a.65.65,0,0,1-.58-.66l.09-9.3a1,1,0,0,0-.93-1l-3.75-.09a.85.85,0,0,0-1,.94l-.2,9.59c0,.41-.21.59-.62.52l-.41-.06a.86.86,0,0,1-.72-.88l.15-3.17a.73.73,0,0,0-.84-.87l-7.11.06a.86.86,0,0,0-.93.81,9.06,9.06,0,0,0,.09,2.93c.11.55-.12.84-.68.87q-8.48.43-15.34.17a.59.59,0,0,0-.7.64,2.08,2.08,0,0,1-.19.75q-.44.91-1.05.12l-.72-.9a1.09,1.09,0,0,0-.93-.46l-10.48-.07a.85.85,0,0,1-.85-.84l-.05-11.25a.6.6,0,0,1,.57-.6H338l.43,0a.79.79,0,0,1,.83.91L339,383c0,.09,0,.14.13.15a58.84,58.84,0,0,0,8.91,0,.14.14,0,0,0,.14-.15l-.18-10.2c0-.57.27-.81.83-.72l.35.05a.6.6,0,0,1,.5.55q.27,4.94.26,9.31A2,2,0,0,0,351,383.79ZM363.44,379a.83.83,0,0,1-.93.76l-7-.16a1.28,1.28,0,0,0-1.44,1.18l-.12.63c-.23,1.36.34,2,1.71,2H365.8a.48.48,0,0,0,.49-.48l.17-8.46a1,1,0,0,0-1-1h0l-10.38.23c-.77,0-1.11.41-1,1.18.19,1.49.28,2.24.28,2.25a1.18,1.18,0,0,0,1.33,1.18c2.33-.07,4.8-.08,7.43,0a.39.39,0,0,1,.39.4s0,0,0,0Zm40.07-3.86a1.51,1.51,0,0,0-1.51-1.51h-6.2a1.52,1.52,0,0,0-1.51,1.51h0v2.68a1.51,1.51,0,0,0,1.51,1.51H402a1.5,1.5,0,0,0,1.51-1.51h0Z" transform="translate(-2.23 -3.81)" style="fill:#21b1fe"/><path d="M161.86,381.43a3.12,3.12,0,0,1-3.11,3.12h-5.84a3.11,3.11,0,0,1-3.11-3.11h0v-6.12a3.09,3.09,0,0,1,3.1-3.11h5.84a3.11,3.11,0,0,1,3.12,3.1h0Zm-1.39-5.81a2,2,0,0,0-2-2h-5.14a2,2,0,0,0-2,2v5.68a2,2,0,0,0,2,2.05h5.14a2.05,2.05,0,0,0,2.05-2h0Z" transform="translate(-2.23 -3.81)" style="fill:#21b1fe"/><path d="M180.66,383.09c2.3.3,5.9.73,7.83-1.24.95-1,1.32-.8,1.09.55-.54,3.19-7.43,2.27-9.57,2a2.2,2.2,0,0,1-1.92-1.94,39.12,39.12,0,0,1-.13-7.66,2.82,2.82,0,0,1,2.81-2.59q3,0,6-.05a2.59,2.59,0,0,1,1.74.61,2.52,2.52,0,0,1,1,2c0,1.08-.33,1.22-1.06.42l-1.1-1.22a1.1,1.1,0,0,0-.89-.39l-5.35,0a1.73,1.73,0,0,0-1.72,1.73v6.34A1.43,1.43,0,0,0,180.66,383.09Z" transform="translate(-2.23 -3.81)" style="fill:#21b1fe"/><path d="M202.24,381.54a.83.83,0,0,0-1-1h-7.15a1.21,1.21,0,0,0-1.21,1.2v.1l.2,2.39a.53.53,0,0,1-.48.57.42.42,0,0,1-.16,0l-.42-.1a.89.89,0,0,1-.71-.88l0-8.51a3.09,3.09,0,0,1,3-3.08l6-.07a3,3,0,0,1,3.08,3v0c0,2.31-.08,4.64-.26,7a3.11,3.11,0,0,0,.37,1.61c.27.41.16.66-.32.74a2,2,0,0,1-.64,0,.57.57,0,0,1-.56-.68Zm-8.12-2.25,6.8.08a1.3,1.3,0,0,0,1.32-1.28h0l0-2.09a2.34,2.34,0,0,0-2.2-2.46h0l-4.94-.06a2.34,2.34,0,0,0-2.26,2.4l0,2.09a1.3,1.3,0,0,0,1.28,1.32Z" transform="translate(-2.23 -3.81)" style="fill:#21b1fe"/><path d="M261.53,374.24l0,10a.45.45,0,0,1-.43.45H261l-.44-.07a.75.75,0,0,1-.62-.79q.63-8.57-.27-11a.4.4,0,0,1,.23-.5l.13,0,10-.05a.9.9,0,0,1,.92.59l.1.24c.08.18,0,.28-.17.3a38.7,38.7,0,0,1-8.58.21.72.72,0,0,0-.77.65Z" transform="translate(-2.23 -3.81)" style="fill:#21b1fe"/><path d="M283.21,381.54a3,3,0,0,1-3,3h-6.06a3,3,0,0,1-3-3h0v-6.34a3,3,0,0,1,3-3h6.06a3,3,0,0,1,3,3h0Zm-1.54-6.07a1.85,1.85,0,0,0-1.84-1.86h0l-5.36,0a1.86,1.86,0,0,0-1.86,1.85h0l0,6a1.84,1.84,0,0,0,1.84,1.85h0l5.36,0a1.85,1.85,0,0,0,1.86-1.84h0Z" transform="translate(-2.23 -3.81)" style="fill:#21b1fe"/><path d="M301.22,377.11h6.17q3.54,0,3.6,3.53v.42q-.11,3.66-3.76,3.63l-7.33-.07a1.37,1.37,0,0,1-1.37-1.38v-.12a56,56,0,0,0,0-10.11c-.05-.57.21-.84.78-.83h.4a.68.68,0,0,1,.75.8l-.12,3.24a.86.86,0,0,0,.83.89Zm8.16,3a1.46,1.46,0,0,0-1.47-1.45l-6.2,0a1.45,1.45,0,0,0-1.45,1.47h0v1.58a1.46,1.46,0,0,0,1.46,1.45l6.2,0a1.48,1.48,0,0,0,1.46-1.47h0Z" transform="translate(-2.23 -3.81)" style="fill:#21b1fe"/><path d="M315.94,373.71c-.28-.41-.17-.62.32-.65l.89-.05a1,1,0,0,1,1,.94V374l-.27,7.73a.52.52,0,0,0,.49.54h.12a1.11,1.11,0,0,0,.7-.43,88.52,88.52,0,0,1,7.85-8.78,1,1,0,0,1,1.46,0,1,1,0,0,1,.29.73l-.08,10.34a.48.48,0,0,1-.6.53l-.28,0a.8.8,0,0,1-.79-.91l.16-7.85c0-.5-.21-.65-.68-.46a2.3,2.3,0,0,0-.94.69q-3.15,3.83-6.6,7.58a2.42,2.42,0,0,1-2.4.83.56.56,0,0,1-.42-.67.78.78,0,0,1,.05-.14l.12-.23a1.43,1.43,0,0,0,.15-.95,19.47,19.47,0,0,1,0-6.19A3.58,3.58,0,0,0,315.94,373.71Z" transform="translate(-2.23 -3.81)" style="fill:#21b1fe"/><rect x="150.97" y="373.84" width="9.76" height="9.22" rx="2.04" transform="translate(-225.1 529.83) rotate(-89.9)" style="fill:#e5f6fe"/><path d="M194.12,379.29a1.3,1.3,0,0,1-1.28-1.32h0l0-2.09a2.34,2.34,0,0,1,2.26-2.4l4.94.06a2.34,2.34,0,0,1,2.2,2.46h0l0,2.09a1.3,1.3,0,0,1-1.32,1.28h0Z" transform="translate(-2.23 -3.81)" style="fill:#e5f6fe"/><rect x="272.3" y="373.9" width="9.66" height="9.06" rx="1.85" transform="translate(-104.5 650.43) rotate(-89.8)" style="fill:#e5f6fe"/><path d="M294.12,378l-6.2.23a1.28,1.28,0,0,1-1.34-1.17l-.17-2.06a1.29,1.29,0,0,1,1.18-1.39h.14l6.43.21a1.29,1.29,0,0,1,1.25,1.33h0l-.05,1.61A1.28,1.28,0,0,1,294.12,378Z" transform="translate(-2.23 -3.81)" style="fill:#e5f6fe"/><path d="M363.44,379l0-.25a.39.39,0,0,0-.32-.44h-.06c-2.63-.05-5.1,0-7.43,0a1.18,1.18,0,0,1-1.33-1.18s-.09-.76-.28-2.25c-.09-.77.25-1.16,1-1.18l10.38-.23a1,1,0,0,1,1,1v0l-.17,8.46a.48.48,0,0,1-.49.48H355.62c-1.37,0-1.94-.67-1.71-2l.12-.63a1.28,1.28,0,0,1,1.44-1.18l7,.16A.83.83,0,0,0,363.44,379Z" transform="translate(-2.23 -3.81)" style="fill:#e5f6fe"/><rect x="392.06" y="369.78" width="9.22" height="5.7" rx="1.51" style="fill:#e5f6fe"/><rect x="300.26" y="378.68" width="9.12" height="4.5" rx="1.46" transform="translate(-4.22 -2.21) rotate(-0.3)" style="fill:#e5f6fe"/><rect x="289.12" y="376.98" width="3.58" height="8.9" rx="1.16" transform="translate(-95.28 665.19) rotate(-89.5)" style="fill:#e5f6fe"/><path d="M273,491.57,205.58,450.3a.32.32,0,0,1-.1-.44.33.33,0,0,1,.27-.15H340.39a.32.32,0,0,1,.31.33.31.31,0,0,1-.15.26l-67.2,41.27A.3.3,0,0,1,273,491.57Z" transform="translate(-2.23 -3.81)" style="fill:#21b1fe"/></svg>