<?xml version="1.0" encoding="UTF-8"?>
<!DOCTYPE svg PUBLIC "-//W3C//DTD SVG 1.1//EN" "http://www.w3.org/Graphics/SVG/1.1/DTD/svg11.dtd">
<svg xmlns="http://www.w3.org/2000/svg" version="1.1" width="512px" height="512px" style="shape-rendering:geometricPrecision; text-rendering:geometricPrecision; image-rendering:optimizeQuality; fill-rule:evenodd; clip-rule:evenodd" xmlns:xlink="http://www.w3.org/1999/xlink">
<g><path style="opacity:0.949" fill="#000000" d="M 219.5,7.5 C 240.057,4.87224 256.224,11.8722 268,28.5C 269.411,30.6504 270.245,32.9837 270.5,35.5C 285.837,35.3334 301.17,35.5001 316.5,36C 320.039,39.3868 321.372,43.5534 320.5,48.5C 347.835,48.3334 375.169,48.5 402.5,49C 413.64,52.1403 420.807,59.3069 424,70.5C 424.333,101.833 424.667,133.167 425,164.5C 462.439,188.041 479.772,222.041 477,266.5C 472.494,301.643 455.16,328.309 425,346.5C 424.667,391.5 424.333,436.5 424,481.5C 420.807,492.693 413.64,499.86 402.5,503C 286.833,503.667 171.167,503.667 55.5,503C 43.8989,499.732 36.7322,492.232 34,480.5C 33.3333,344.167 33.3333,207.833 34,71.5C 36.7322,59.7677 43.8989,52.2677 55.5,49C 82.8313,48.5 110.165,48.3334 137.5,48.5C 136.784,43.6104 138.117,39.4437 141.5,36C 156.844,35.8329 172.178,35.3329 187.5,34.5C 193.962,20.3609 204.628,11.3609 219.5,7.5 Z M 228.5,23.5 C 243.612,24.7751 253.112,32.7751 257,47.5C 258.167,48.6667 259.333,49.8333 260.5,51C 274.829,51.4999 289.163,51.6666 303.5,51.5C 303.5,64.5 303.5,77.5 303.5,90.5C 253.833,90.5 204.167,90.5 154.5,90.5C 154.5,77.5 154.5,64.5 154.5,51.5C 168.837,51.6666 183.171,51.4999 197.5,51C 198.416,50.6258 199.25,50.1258 200,49.5C 203.744,34.2452 213.244,25.5785 228.5,23.5 Z M 63.5,64.5 C 88.1667,64.5 112.833,64.5 137.5,64.5C 137.5,68.8333 137.5,73.1667 137.5,77.5C 115.164,77.3334 92.8308,77.5 70.5,78C 67.804,78.6898 65.6374,80.1898 64,82.5C 63.3333,211.5 63.3333,340.5 64,469.5C 65.762,472.268 68.262,473.768 71.5,474C 177.89,474.993 284.223,474.66 390.5,473C 392.333,472.5 393.5,471.333 394,469.5C 394.333,432.5 394.667,395.5 395,358.5C 399.048,357.321 403.048,355.988 407,354.5C 407.667,395.833 407.667,437.167 407,478.5C 404.442,483.729 400.275,486.562 394.5,487C 284.167,487.667 173.833,487.667 63.5,487C 57.3337,486.504 53.167,483.338 51,477.5C 50.3333,343.167 50.3333,208.833 51,74.5C 53.3284,68.6531 57.4951,65.3197 63.5,64.5 Z M 320.5,64.5 C 345.169,64.3334 369.836,64.5 394.5,65C 400.275,65.4378 404.442,68.2712 407,73.5C 407.667,101.167 407.667,128.833 407,156.5C 403.311,154.951 399.477,153.785 395.5,153C 394.986,128.818 394.152,104.652 393,80.5C 391.352,79.283 389.519,78.4497 387.5,78C 365.169,77.5 342.836,77.3334 320.5,77.5C 320.5,73.1667 320.5,68.8333 320.5,64.5 Z M 80.5,94.5 C 99.5,94.5 118.5,94.5 137.5,94.5C 137.301,97.941 137.801,101.274 139,104.5C 139.903,105.701 141.069,106.535 142.5,107C 200.5,107.667 258.5,107.667 316.5,107C 320.039,103.613 321.372,99.4466 320.5,94.5C 339.5,94.5 358.5,94.5 377.5,94.5C 377.5,113.167 377.5,131.833 377.5,150.5C 332.521,150.562 299.354,170.229 278,209.5C 258.591,257.125 267.091,298.958 303.5,335C 324.847,352.827 349.514,361.327 377.5,360.5C 377.5,392.833 377.5,425.167 377.5,457.5C 278.5,457.5 179.5,457.5 80.5,457.5C 80.5,336.5 80.5,215.5 80.5,94.5 Z M 121.5,143.5 C 138.833,143.5 156.167,143.5 173.5,143.5C 173.5,160.5 173.5,177.5 173.5,194.5C 156.167,194.5 138.833,194.5 121.5,194.5C 121.5,177.5 121.5,160.5 121.5,143.5 Z M 363.5,167.5 C 409.698,166.496 440.865,187.496 457,230.5C 466.247,268.423 456.08,299.923 426.5,325C 389.954,349.952 353.621,349.619 317.5,324C 282.496,291.308 275.662,253.474 297,210.5C 312.776,186.2 334.943,171.867 363.5,167.5 Z M 416.5,220.5 C 421.366,221.556 423.2,224.556 422,229.5C 402.138,249.028 382.638,268.862 363.5,289C 362.234,289.309 361.067,289.809 360,290.5C 346.725,279.559 334.391,267.559 323,254.5C 322.178,250.136 324.011,247.47 328.5,246.5C 337.62,254.118 346.286,262.284 354.5,271C 357.366,272.457 360.366,272.79 363.5,272C 380.833,256 397.5,239.333 413.5,222C 414.737,221.768 415.737,221.268 416.5,220.5 Z M 121.5,252.5 C 138.833,252.5 156.167,252.5 173.5,252.5C 173.5,269.833 173.5,287.167 173.5,304.5C 156.167,304.5 138.833,304.5 121.5,304.5C 121.5,287.167 121.5,269.833 121.5,252.5 Z M 121.5,362.5 C 138.833,362.5 156.167,362.5 173.5,362.5C 173.5,379.5 173.5,396.5 173.5,413.5C 156.167,413.5 138.833,413.5 121.5,413.5C 121.5,396.5 121.5,379.5 121.5,362.5 Z"/></g>
<g><path style="opacity:0.888" fill="#000000" d="M 225.5,35.5 C 237.793,35.4158 241.626,41.0825 237,52.5C 227.758,58.1255 221.592,55.7922 218.5,45.5C 219.298,41.0436 221.632,37.7103 225.5,35.5 Z"/></g>
<g><path style="opacity:0.939" fill="#000000" d="M 115.5,126.5 C 136.836,126.333 158.169,126.5 179.5,127C 185.66,129.487 189.16,133.987 190,140.5C 190.667,159.5 190.667,178.5 190,197.5C 189.023,204.474 185.19,208.974 178.5,211C 157.5,211.667 136.5,211.667 115.5,211C 110.243,208.744 106.743,204.91 105,199.5C 104.333,179.167 104.333,158.833 105,138.5C 106.621,132.72 110.121,128.72 115.5,126.5 Z M 121.5,143.5 C 121.5,160.5 121.5,177.5 121.5,194.5C 138.833,194.5 156.167,194.5 173.5,194.5C 173.5,177.5 173.5,160.5 173.5,143.5C 156.167,143.5 138.833,143.5 121.5,143.5 Z"/></g>
<g><path style="opacity:0.933" fill="#000000" d="M 223.5,140.5 C 257.168,140.333 290.835,140.5 324.5,141C 331.879,142.925 334.045,147.425 331,154.5C 330.167,155.333 329.333,156.167 328.5,157C 292.5,157.667 256.5,157.667 220.5,157C 216.723,154.045 215.557,150.212 217,145.5C 218.603,142.965 220.769,141.298 223.5,140.5 Z"/></g>
<g><path style="opacity:0.926" fill="#000000" d="M 223.5,179.5 C 239.837,179.333 256.17,179.5 272.5,180C 278.161,181.82 280.328,185.653 279,191.5C 278.215,193.286 277.049,194.786 275.5,196C 257.167,196.667 238.833,196.667 220.5,196C 216.723,193.045 215.557,189.212 217,184.5C 218.603,181.965 220.769,180.298 223.5,179.5 Z"/></g>
<g><path style="opacity:0.927" fill="#000000" d="M 415.5,203.5 C 434.947,205.779 442.447,216.445 438,235.5C 436.92,237.996 435.586,240.33 434,242.5C 413.833,262.667 393.667,282.833 373.5,303C 364.5,309 355.5,309 346.5,303C 333.304,290.138 320.47,276.971 308,263.5C 302.1,244.74 308.767,233.406 328,229.5C 333.687,229.951 338.854,231.784 343.5,235C 349,240.5 354.5,246 360,251.5C 374.5,237 389,222.5 403.5,208C 407.301,205.584 411.301,204.084 415.5,203.5 Z M 416.5,220.5 C 415.737,221.268 414.737,221.768 413.5,222C 397.5,239.333 380.833,256 363.5,272C 360.366,272.79 357.366,272.457 354.5,271C 346.286,262.284 337.62,254.118 328.5,246.5C 324.011,247.47 322.178,250.136 323,254.5C 334.391,267.559 346.725,279.559 360,290.5C 361.067,289.809 362.234,289.309 363.5,289C 382.638,268.862 402.138,249.028 422,229.5C 423.2,224.556 421.366,221.556 416.5,220.5 Z"/></g>
<g><path style="opacity:0.938" fill="#000000" d="M 118.5,235.5 C 137.836,235.333 157.17,235.5 176.5,236C 184.751,237.331 189.251,242.164 190,250.5C 190.667,269.167 190.667,287.833 190,306.5C 189.413,314.42 185.247,319.253 177.5,321C 157.5,321.667 137.5,321.667 117.5,321C 110.667,319.5 106.5,315.333 105,308.5C 104.333,288.5 104.333,268.5 105,248.5C 106.758,241.241 111.258,236.908 118.5,235.5 Z M 121.5,252.5 C 121.5,269.833 121.5,287.167 121.5,304.5C 138.833,304.5 156.167,304.5 173.5,304.5C 173.5,287.167 173.5,269.833 173.5,252.5C 156.167,252.5 138.833,252.5 121.5,252.5 Z"/></g>
<g><path style="opacity:0.91" fill="#000000" d="M 221.5,250.5 C 230.173,250.334 238.84,250.5 247.5,251C 252.069,253.541 253.569,257.375 252,262.5C 251.167,264.667 249.667,266.167 247.5,267C 238.833,267.667 230.167,267.667 221.5,267C 216.391,263.634 215.224,259.134 218,253.5C 219.145,252.364 220.312,251.364 221.5,250.5 Z"/></g>
<g><path style="opacity:0.918" fill="#000000" d="M 221.5,289.5 C 234.837,289.333 248.171,289.5 261.5,290C 269.061,294.825 269.394,300.159 262.5,306C 248.833,306.667 235.167,306.667 221.5,306C 216.391,302.634 215.224,298.134 218,292.5C 219.145,291.364 220.312,290.364 221.5,289.5 Z"/></g>
<g><path style="opacity:0.939" fill="#000000" d="M 116.5,345.5 C 137.169,345.333 157.836,345.5 178.5,346C 185.19,348.026 189.023,352.526 190,359.5C 190.667,378.5 190.667,397.5 190,416.5C 189.16,423.013 185.66,427.513 179.5,430C 157.833,430.667 136.167,430.667 114.5,430C 109.577,427.673 106.41,423.84 105,418.5C 104.333,398.167 104.333,377.833 105,357.5C 107.019,351.65 110.852,347.65 116.5,345.5 Z M 121.5,362.5 C 121.5,379.5 121.5,396.5 121.5,413.5C 138.833,413.5 156.167,413.5 173.5,413.5C 173.5,396.5 173.5,379.5 173.5,362.5C 156.167,362.5 138.833,362.5 121.5,362.5 Z"/></g>
<g><path style="opacity:0.932" fill="#000000" d="M 220.5,360.5 C 256.502,360.333 292.502,360.5 328.5,361C 333.535,364.013 334.702,368.18 332,373.5C 330.681,375.487 328.848,376.654 326.5,377C 291.833,377.667 257.167,377.667 222.5,377C 216.905,374.646 215.072,370.479 217,364.5C 218.376,363.295 219.542,361.962 220.5,360.5 Z"/></g>
<g><path style="opacity:0.934" fill="#000000" d="M 220.5,399.5 C 263.168,399.333 305.835,399.5 348.5,400C 353.535,403.013 354.702,407.18 352,412.5C 350.681,414.487 348.848,415.654 346.5,416C 305.167,416.667 263.833,416.667 222.5,416C 216.905,413.646 215.072,409.479 217,403.5C 218.376,402.295 219.542,400.962 220.5,399.5 Z"/></g>
</svg>
